<svg width="360" height="800" viewBox="0 0 360 800" fill="none" xmlns="http://www.w3.org/2000/svg">
<rect width="360" height="800" fill="#1E1E1E"/>
<g clip-path="url(#clip0_0_1)">
<rect width="360" height="800" fill="#1F1F1F"/>
<g opacity="0.2">
<line x1="141.729" y1="786.791" x2="146.118" y2="781.633" stroke="#EE9561"/>
<line x1="133.399" y1="778.814" x2="137.788" y2="773.656" stroke="#EE9561"/>
<line x1="125.069" y1="770.837" x2="129.458" y2="765.679" stroke="#EE9561"/>
<line x1="116.768" y1="762.83" x2="122.55" y2="757.079" stroke="#EE9561"/>
<line x1="108.697" y1="751.429" x2="113.679" y2="747.664" stroke="#EE9561"/>
<line x1="99.2144" y1="740.642" x2="106.983" y2="735.692" stroke="#EE9561"/>
<line x1="92.5592" y1="728.654" x2="100.921" y2="725.098" stroke="#EE9561"/>
<line x1="87.2246" y1="716.112" x2="94.1924" y2="713.148" stroke="#EE9561"/>
<line x1="79.519" y1="697.996" x2="86.4869" y2="695.032" stroke="#EE9561"/>
<line x1="74.7772" y1="686.847" x2="83.1386" y2="683.291" stroke="#EE9561"/>
<line x1="71.5228" y1="675.076" x2="79.0834" y2="673.506" stroke="#EE9561"/>
<line x1="70.1609" y1="664.136" x2="77.7215" y2="662.566" stroke="#EE9561"/>
<line x1="68.297" y1="651.791" x2="76.4504" y2="651.615" stroke="#EE9561"/>
<line x1="65.7911" y1="638.065" x2="75.9307" y2="638.689" stroke="#EE9561"/>
<line x1="66.6235" y1="624.545" x2="76.7631" y2="625.169" stroke="#EE9561"/>
<line x1="67.5447" y1="611.039" x2="74.8972" y2="612.849" stroke="#EE9561"/>
<line x1="70.6909" y1="591.547" x2="77.4506" y2="591.964" stroke="#EE9561"/>
<line x1="73.8739" y1="575.484" x2="79.8328" y2="577.887" stroke="#EE9561"/>
<line x1="77.2854" y1="564.159" x2="83.2443" y2="566.561" stroke="#EE9561"/>
<line x1="80.6294" y1="552.812" x2="87.9819" y2="554.622" stroke="#EE9561"/>
<line x1="85.5018" y1="540.916" x2="91.4607" y2="543.319" stroke="#EE9561"/>
<line x1="90.9633" y1="530.423" x2="97.515" y2="534.219" stroke="#EE9561"/>
<line x1="96.361" y1="519.899" x2="102.913" y2="523.695" stroke="#EE9561"/>
<line x1="102.351" y1="510.768" x2="108.903" y2="514.564" stroke="#EE9561"/>
<line x1="115.799" y1="491.966" x2="120.958" y2="496.354" stroke="#EE9561"/>
<line x1="123.807" y1="483.664" x2="129.557" y2="489.446" stroke="#EE9561"/>
<line x1="131.783" y1="475.334" x2="137.534" y2="481.117" stroke="#EE9561"/>
<line x1="141.174" y1="466.433" x2="147.517" y2="473.609" stroke="#EE9561"/>
<line x1="152.569" y1="458.36" x2="156.926" y2="464.735" stroke="#EE9561"/>
<line x1="162.532" y1="450.831" x2="166.889" y2="457.206" stroke="#EE9561"/>
<line x1="173.097" y1="444.709" x2="178.047" y2="452.478" stroke="#EE9561"/>
<line x1="185.677" y1="439.448" x2="188.048" y2="445.022" stroke="#EE9561"/>
<line x1="205.187" y1="431.149" x2="207.558" y2="436.724" stroke="#EE9561"/>
<line x1="216.362" y1="426.486" x2="218.524" y2="435.44" stroke="#EE9561"/>
<line x1="226.713" y1="423.746" x2="228.283" y2="431.307" stroke="#EE9561"/>
<line x1="239.057" y1="421.882" x2="239.234" y2="430.035" stroke="#EE9561"/>
<line x1="252.785" y1="419.335" x2="252.961" y2="427.488" stroke="#EE9561"/>
<line x1="265.119" y1="417.38" x2="265.295" y2="425.533" stroke="#EE9561"/>
<line x1="276.647" y1="417.491" x2="275.43" y2="426.237" stroke="#EE9561"/>
<line x1="288.77" y1="418.94" x2="287.761" y2="424.306" stroke="#EE9561"/>
<line x1="311.029" y1="421.016" x2="309.219" y2="428.369" stroke="#EE9561"/>
<line x1="321.762" y1="423.034" x2="319.952" y2="430.387" stroke="#EE9561"/>
<line x1="330.508" y1="424.251" x2="328.698" y2="431.604" stroke="#EE9561"/>
<line x1="340.417" y1="428.323" x2="338.015" y2="434.282" stroke="#EE9561"/>
<line x1="353.105" y1="431.205" x2="349.309" y2="437.757" stroke="#EE9561"/>
<line x1="361.643" y1="435.802" x2="357.847" y2="442.354" stroke="#EE9561"/>
<line x1="194.84" y1="433.905" x2="358.434" y2="818.53" stroke="#EE9561"/>
<line x1="109.482" y1="500.365" x2="443.472" y2="751.663" stroke="#EE9561"/>
<line x1="109.482" y1="500.365" x2="443.472" y2="751.663" stroke="#EE9561"/>
<line x1="150.128" y1="793.108" x2="401.426" y2="459.118" stroke="#EE9561"/>
<line x1="250.12" y1="834.656" x2="300.844" y2="419.034" stroke="#EE9561"/>
<line x1="66.8811" y1="600.228" x2="484.61" y2="651.21" stroke="#EE9561"/>
<line x1="82.2746" y1="708.343" x2="469.687" y2="543.563" stroke="#EE9561"/>
<circle cx="276.177" cy="626.413" r="201.428" transform="rotate(-23.0417 276.177 626.413)" stroke="#EE9561" stroke-width="3"/>
<path d="M469.423 544.219C514.489 650.173 464.508 772.87 357.778 818.266C251.048 863.662 127.996 814.562 82.9304 708.608C37.8644 602.654 87.8449 479.957 194.575 434.561C301.305 389.165 424.357 438.265 469.423 544.219Z" stroke="#EE9561"/>
<path d="M452.7 551.332C493.838 648.05 448.16 760.075 350.665 801.543C253.171 843.011 140.791 798.213 99.6532 701.495C58.5157 604.777 104.193 492.751 201.688 451.284C299.182 409.816 411.562 454.614 452.7 551.332Z" stroke="#EE9561"/>
<path d="M302.144 561.061C312.836 586.199 300.82 615.388 275.284 626.25C249.749 637.111 220.387 625.521 209.695 600.383C199.003 575.245 211.019 546.055 236.555 535.194C262.091 524.333 291.452 535.923 302.144 561.061Z" stroke="#EE9561"/>
<path d="M350.882 441.162C360.307 458.729 366.064 478.025 367.81 497.902C369.556 517.779 367.256 537.831 361.047 556.865C354.837 575.9 344.845 593.528 331.664 608.702C318.483 623.875 302.383 636.283 284.32 645.188C266.258 654.093 246.603 659.313 226.525 660.537C206.447 661.761 186.356 658.964 167.446 652.313C148.537 645.663 131.196 635.294 116.454 621.824C101.712 608.353 89.8712 592.057 81.6346 573.904" stroke="#EE9561"/>
<path d="M366.229 649.824C389.198 703.827 363.732 766.363 309.338 789.499C254.944 812.635 192.231 787.604 169.262 733.601C146.293 679.598 171.76 617.061 226.153 593.926C280.547 570.79 343.26 595.821 366.229 649.824Z" stroke="#EE9561"/>
<path d="M321.83 565.442L320.425 564.154L318.52 564.107L319.808 562.702L319.855 560.797L321.26 562.085L323.165 562.131L321.877 563.536L321.83 565.442ZM325.288 573.571L323.883 572.283L321.977 572.236L323.266 570.831L323.312 568.926L324.717 570.214L326.623 570.261L325.335 571.666L325.288 573.571ZM318.741 574.299L315.931 571.723L312.12 571.629L314.696 568.819L314.789 565.008L317.599 567.585L321.41 567.678L318.834 570.488L318.741 574.299Z" fill="#EE9561"/>
<path d="M350.748 501.826L348.772 500.014L346.091 499.949L347.903 497.972L347.969 495.292L349.945 497.104L352.625 497.17L350.813 499.146L350.748 501.826ZM354.362 501.253L353.374 500.347L352.034 500.314L352.94 499.326L352.972 497.986L353.96 498.892L355.301 498.925L354.395 499.913L354.362 501.253Z" fill="#EE9561"/>
<path d="M306.53 541.093L305.58 535.717L300.383 534.039L305.214 531.47L305.202 526.024L309.116 529.81L314.318 528.112L311.921 533.02L315.135 537.433L309.729 536.668L306.53 541.093Z" fill="#EE9561"/>
<path d="M287.053 458.865L286.103 453.489L280.905 451.811L285.737 449.242L285.724 443.796L289.639 447.583L294.841 445.884L292.444 450.792L295.658 455.205L290.251 454.44L287.053 458.865Z" fill="#EE9561"/>
<path d="M321.826 497.834L321.509 496.042L319.777 495.483L321.387 494.626L321.383 492.811L322.688 494.073L324.422 493.507L323.623 495.143L324.694 496.614L322.892 496.359L321.826 497.834Z" fill="#EE9561"/>
<path d="M228.631 759.44L225.872 756.911L222.13 756.819L224.66 754.06L224.751 750.319L227.51 752.848L231.252 752.94L228.722 755.699L228.631 759.44ZM235.42 775.403L232.661 772.874L228.92 772.782L231.449 770.023L231.541 766.281L234.3 768.811L238.041 768.902L235.512 771.661L235.42 775.403ZM222.564 776.832L217.046 771.773L209.562 771.59L214.621 766.072L214.804 758.589L220.322 763.648L227.805 763.831L222.747 769.349L222.564 776.832Z" fill="#EE9561"/>
<path d="M250.561 707.361L248.585 705.549L245.905 705.484L247.717 703.508L247.782 700.827L249.758 702.639L252.439 702.705L250.627 704.681L250.561 707.361ZM254.175 706.788L253.187 705.882L251.847 705.85L252.753 704.862L252.786 703.521L253.774 704.427L255.114 704.46L254.208 705.448L254.175 706.788Z" fill="#EE9561"/>
<path d="M162.061 633.097L160.085 631.285L157.405 631.22L159.217 629.243L159.282 626.563L161.258 628.375L163.938 628.441L162.127 630.417L162.061 633.097ZM165.675 632.524L164.687 631.618L163.347 631.585L164.253 630.597L164.286 629.257L165.274 630.163L166.614 630.196L165.708 631.184L165.675 632.524Z" fill="#EE9561"/>
<path d="M180.997 689.224L179.021 687.413L176.341 687.347L178.152 685.371L178.218 682.691L180.194 684.502L182.874 684.568L181.063 686.544L180.997 689.224ZM184.611 688.652L183.623 687.746L182.283 687.713L183.189 686.725L183.222 685.385L184.21 686.291L185.55 686.323L184.644 687.311L184.611 688.652Z" fill="#EE9561"/>
<path d="M279.846 681.74L277.87 679.928L275.19 679.863L277.001 677.886L277.067 675.206L279.043 677.018L281.723 677.084L279.912 679.06L279.846 681.74ZM283.46 681.167L282.472 680.261L281.132 680.228L282.038 679.24L282.071 677.9L283.059 678.806L284.399 678.839L283.493 679.827L283.46 681.167Z" fill="#EE9561"/>
<path d="M283.724 717.941L281.748 716.129L279.067 716.064L280.879 714.088L280.945 711.407L282.921 713.219L285.601 713.285L283.789 715.261L283.724 717.941ZM287.338 717.368L286.35 716.462L285.01 716.43L285.916 715.442L285.948 714.101L286.937 715.007L288.277 715.04L287.371 716.028L287.338 717.368Z" fill="#EE9561"/>
<path d="M251.464 734.954L249.487 733.142L246.807 733.077L248.619 731.1L248.685 728.42L250.661 730.232L253.341 730.298L251.529 732.274L251.464 734.954ZM255.078 734.381L254.09 733.475L252.75 733.442L253.656 732.454L253.688 731.114L254.676 732.02L256.016 732.053L255.111 733.041L255.078 734.381Z" fill="#EE9561"/>
<path d="M283.707 755.195L281.66 754.387L279.657 755.239L278.805 753.237L276.771 752.398L277.578 750.351L276.726 748.349L278.729 747.497L279.567 745.462L281.614 746.27L283.617 745.418L284.469 747.42L286.504 748.259L285.696 750.306L286.548 752.308L284.545 753.16L283.707 755.195Z" fill="#EE9561"/>
<path d="M166.587 718.145L166.033 715.009L163.001 714.03L165.819 712.532L165.812 709.355L168.095 711.563L171.13 710.573L169.731 713.435L171.606 716.01L168.453 715.563L166.587 718.145Z" fill="#EE9561"/>
<path d="M360.169 725.223L358.764 723.935L356.858 723.888L358.146 722.483L358.193 720.578L359.598 721.866L361.503 721.913L360.215 723.318L360.169 725.223ZM363.626 733.352L362.221 732.064L360.316 732.018L361.604 730.613L361.65 728.707L363.055 729.995L364.961 730.042L363.673 731.447L363.626 733.352ZM357.079 734.08L354.269 731.504L350.458 731.411L353.034 728.601L353.127 724.79L355.937 727.366L359.748 727.459L357.172 730.269L357.079 734.08Z" fill="#EE9561"/>
<path d="M344.868 700.874L343.919 695.498L338.721 693.821L343.552 691.251L343.54 685.805L347.454 689.592L352.657 687.893L350.259 692.801L353.474 697.214L348.067 696.449L344.868 700.874Z" fill="#EE9561"/>
<path d="M362.685 643.028L360.386 640.92L357.268 640.844L359.376 638.545L359.452 635.427L361.751 637.535L364.869 637.611L362.761 639.91L362.685 643.028ZM368.343 656.331L366.044 654.223L362.926 654.146L365.033 651.847L365.11 648.729L367.409 650.837L370.527 650.913L368.419 653.212L368.343 656.331ZM357.629 657.521L353.031 653.306L346.795 653.153L351.01 648.555L351.163 642.319L355.761 646.534L361.997 646.687L357.782 651.285L357.629 657.521Z" fill="#EE9561"/>
<path d="M342.687 626.101L341.737 620.724L336.539 619.047L341.371 616.478L341.358 611.032L345.273 614.818L350.475 613.12L348.078 618.028L351.292 622.441L345.885 621.675L342.687 626.101Z" fill="#EE9561"/>
<path d="M126.327 668.756L124.641 667.21L122.354 667.154L123.9 665.468L123.956 663.182L125.642 664.727L127.929 664.783L126.383 666.469L126.327 668.756ZM130.476 678.511L128.79 676.965L126.503 676.909L128.049 675.223L128.105 672.937L129.791 674.482L132.078 674.538L130.532 676.224L130.476 678.511ZM122.619 679.384L119.247 676.293L114.674 676.181L117.765 672.809L117.877 668.236L121.249 671.327L125.822 671.439L122.731 674.811L122.619 679.384Z" fill="#EE9561"/>
<path d="M149.899 578.414L146.073 574.906L140.884 574.779L144.392 570.953L144.519 565.764L148.345 569.272L153.534 569.399L150.026 573.225L149.899 578.414ZM156.897 577.305L154.984 575.551L152.389 575.487L154.143 573.574L154.207 570.98L156.12 572.734L158.714 572.797L156.96 574.71L156.897 577.305Z" fill="#EE9561"/>
<path d="M138.15 647.544L137.026 646.514L135.502 646.477L136.532 645.353L136.57 643.828L137.694 644.859L139.218 644.896L138.188 646.02L138.15 647.544ZM140.206 647.219L139.644 646.703L138.882 646.685L139.397 646.123L139.416 645.361L139.978 645.876L140.74 645.894L140.225 646.456L140.206 647.219Z" fill="#EE9561"/>
<path d="M136.77 570.785L135.646 569.754L134.121 569.717L135.152 568.593L135.189 567.068L136.313 568.099L137.837 568.136L136.807 569.26L136.77 570.785ZM138.825 570.459L138.263 569.944L137.501 569.925L138.016 569.363L138.035 568.601L138.597 569.116L139.359 569.135L138.844 569.697L138.825 570.459Z" fill="#EE9561"/>
<path d="M198.412 640.907L195.651 639.818L192.951 640.967L191.803 638.267L189.059 637.137L190.148 634.376L189 631.676L191.7 630.528L192.83 627.784L195.59 628.873L198.29 627.725L199.439 630.425L202.182 631.555L201.093 634.315L202.242 637.015L199.542 638.164L198.412 640.907Z" fill="#EE9561"/>
<path d="M123.497 615.732L122.197 608.377L115.086 606.082L121.696 602.567L121.679 595.117L127.035 600.297L134.151 597.974L130.872 604.687L135.269 610.725L127.873 609.678L123.497 615.732Z" fill="#EE9561"/>
<path d="M222.352 470.202L221.228 469.172L219.703 469.134L220.734 468.01L220.771 466.486L221.895 467.516L223.419 467.554L222.389 468.678L222.352 470.202ZM224.407 469.876L223.845 469.361L223.083 469.343L223.598 468.781L223.617 468.018L224.179 468.534L224.941 468.552L224.426 469.114L224.407 469.876Z" fill="#EE9561"/>
<path d="M278.529 505.552L277.405 504.522L275.881 504.485L276.911 503.361L276.949 501.836L278.073 502.867L279.597 502.904L278.566 504.028L278.529 505.552ZM280.585 505.227L280.023 504.711L279.261 504.693L279.776 504.131L279.795 503.368L280.357 503.884L281.119 503.902L280.604 504.464L280.585 505.227Z" fill="#EE9561"/>
<path d="M216.625 673.411L215.501 672.38L213.977 672.343L215.007 671.219L215.044 669.695L216.168 670.725L217.693 670.763L216.662 671.886L216.625 673.411ZM218.681 673.085L218.119 672.57L217.357 672.551L217.872 671.989L217.89 671.227L218.452 671.742L219.215 671.761L218.699 672.323L218.681 673.085Z" fill="#EE9561"/>
<path d="M146.083 728.1L144.959 727.07L143.434 727.033L144.465 725.909L144.502 724.384L145.626 725.415L147.15 725.452L146.12 726.576L146.083 728.1ZM148.138 727.775L147.576 727.259L146.814 727.241L147.329 726.679L147.348 725.916L147.91 726.432L148.672 726.45L148.157 727.012L148.138 727.775Z" fill="#EE9561"/>
<path d="M232.112 609.225L230.988 608.194L229.464 608.157L230.494 607.033L230.532 605.509L231.656 606.539L233.18 606.576L232.149 607.7L232.112 609.225ZM234.168 608.899L233.606 608.384L232.844 608.365L233.359 607.803L233.378 607.041L233.94 607.556L234.702 607.575L234.187 608.137L234.168 608.899Z" fill="#EE9561"/>
<path d="M311.237 470.247L310.113 469.216L308.589 469.179L309.619 468.055L309.657 466.53L310.781 467.561L312.305 467.598L311.274 468.722L311.237 470.247ZM313.293 469.921L312.731 469.406L311.969 469.387L312.484 468.825L312.503 468.063L313.065 468.578L313.827 468.597L313.312 469.159L313.293 469.921Z" fill="#EE9561"/>
<path d="M265.312 466.741L264.189 465.71L262.664 465.673L263.695 464.549L263.732 463.024L264.856 464.055L266.38 464.092L265.35 465.216L265.312 466.741ZM267.368 466.415L266.806 465.899L266.044 465.881L266.559 465.319L266.578 464.557L267.14 465.072L267.902 465.091L267.387 465.653L267.368 466.415Z" fill="#EE9561"/>
<path d="M198.428 529.062L197.023 527.774L195.117 527.728L196.406 526.323L196.452 524.417L197.857 525.705L199.763 525.752L198.475 527.157L198.428 529.062ZM201.886 537.192L200.481 535.904L198.575 535.857L199.863 534.452L199.91 532.546L201.315 533.835L203.22 533.881L201.932 535.286L201.886 537.192ZM195.338 537.919L192.528 535.343L188.717 535.25L191.293 532.44L191.387 528.629L194.197 531.205L198.008 531.298L195.431 534.108L195.338 537.919Z" fill="#EE9561"/>
<path d="M227.345 465.446L225.369 463.635L222.689 463.569L224.501 461.593L224.566 458.913L226.542 460.725L229.223 460.79L227.411 462.766L227.345 465.446ZM230.959 464.874L229.971 463.968L228.631 463.935L229.537 462.947L229.57 461.607L230.558 462.513L231.898 462.546L230.992 463.534L230.959 464.874Z" fill="#EE9561"/>
<path d="M268.866 520.236L265.002 518.712L261.222 520.319L259.614 516.539L255.773 514.957L257.298 511.093L255.69 507.313L259.47 505.705L261.052 501.864L264.916 503.388L268.696 501.78L270.304 505.561L274.145 507.143L272.621 511.007L274.229 514.787L270.449 516.395L268.866 520.236Z" fill="#EE9561"/>
<path d="M280.24 634.031L277.203 632.834L274.233 634.097L272.97 631.127L269.952 629.884L271.15 626.848L269.887 623.877L272.857 622.614L274.1 619.596L277.136 620.794L280.106 619.531L281.369 622.501L284.387 623.744L283.19 626.78L284.453 629.75L281.483 631.014L280.24 634.031Z" fill="#EE9561"/>
<path d="M183.127 504.714L182.178 499.337L176.98 497.66L181.812 495.091L181.799 489.645L185.714 493.431L190.916 491.733L188.519 496.64L191.733 501.054L186.326 500.288L183.127 504.714Z" fill="#EE9561"/>
</g>
<g opacity="0.2">
<line x1="5.40022" y1="120.118" x2="4.57381" y2="124.961" stroke="#EE9561"/>
<line x1="13.1359" y1="121.914" x2="11.3464" y2="126.784" stroke="#EE9561"/>
<line x1="21.8424" y1="123.633" x2="19.1172" y2="129.493" stroke="#EE9561"/>
<line x1="29.6564" y1="127.266" x2="26.9311" y2="133.127" stroke="#EE9561"/>
<line x1="37.4254" y1="130.978" x2="34.6455" y2="134.912" stroke="#EE9561"/>
<line x1="48.2556" y1="137.341" x2="46.4388" y2="141.248" stroke="#EE9561"/>
<line x1="56.9975" y1="143.006" x2="54.1902" y2="145.977" stroke="#EE9561"/>
<line x1="62.9126" y1="147.658" x2="60.1054" y2="150.629" stroke="#EE9561"/>
<line x1="68.8727" y1="152.254" x2="66.0928" y2="156.188" stroke="#EE9561"/>
<line x1="74.7703" y1="157.923" x2="71.9631" y2="160.895" stroke="#EE9561"/>
<line x1="79.6975" y1="163.613" x2="75.9271" y2="166.612" stroke="#EE9561"/>
<line x1="84.6768" y1="169.255" x2="80.9065" y2="172.254" stroke="#EE9561"/>
<line x1="88.6932" y1="174.924" x2="84.9229" y2="177.923" stroke="#EE9561"/>
<line x1="96.6782" y1="187.275" x2="92.8806" y2="189.31" stroke="#EE9561"/>
<line x1="99.7214" y1="193.953" x2="94.9606" y2="196.016" stroke="#EE9561"/>
<line x1="102.802" y1="200.612" x2="98.0412" y2="202.675" stroke="#EE9561"/>
<line x1="105.883" y1="208.246" x2="100.159" y2="210.336" stroke="#EE9561"/>
<line x1="107.995" y1="216.876" x2="103.207" y2="217.976" stroke="#EE9561"/>
<line x1="110.14" y1="224.526" x2="105.352" y2="225.626" stroke="#EE9561"/>
<line x1="111.306" y1="232.207" x2="105.555" y2="233.334" stroke="#EE9561"/>
<line x1="111.47" y1="240.884" x2="107.618" y2="240.993" stroke="#EE9561"/>
<line x1="111.853" y1="254.367" x2="108" y2="254.477" stroke="#EE9561"/>
<line x1="111.989" y1="262.067" x2="106.183" y2="261.268" stroke="#EE9561"/>
<line x1="111.201" y1="268.834" x2="106.359" y2="268.007" stroke="#EE9561"/>
<line x1="109.405" y1="276.57" x2="104.535" y2="274.78" stroke="#EE9561"/>
<line x1="107.725" y1="285.292" x2="102.855" y2="283.503" stroke="#EE9561"/>
<line x1="106.018" y1="293.051" x2="101.148" y2="291.262" stroke="#EE9561"/>
<line x1="103.247" y1="299.842" x2="98.3499" y2="297.089" stroke="#EE9561"/>
<line x1="99.5659" y1="306.68" x2="96.6219" y2="304.836" stroke="#EE9561"/>
<line x1="93.1565" y1="319.376" x2="89.2222" y2="316.596" stroke="#EE9561"/>
<line x1="89.4682" y1="325.264" x2="85.5339" y2="322.484" stroke="#EE9561"/>
<line x1="86.7156" y1="330.162" x2="82.7813" y2="327.382" stroke="#EE9561"/>
<line x1="81.9819" y1="335.069" x2="79.0107" y2="332.261" stroke="#EE9561"/>
<line x1="77.31" y1="341.895" x2="74.3114" y2="338.124" stroke="#EE9561"/>
<line x1="72.6039" y1="345.884" x2="69.6053" y2="342.113" stroke="#EE9561"/>
<line x1="67.9251" y1="350.836" x2="64.9265" y2="347.065" stroke="#EE9561"/>
<line x1="63.219" y1="354.825" x2="60.2204" y2="351.054" stroke="#EE9561"/>
<line x1="57.5498" y1="358.841" x2="54.5513" y2="355.071" stroke="#EE9561"/>
<line x1="52.7671" y1="361.792" x2="50.7316" y2="357.994" stroke="#EE9561"/>
<line x1="112.624" y1="247.598" x2="-153.186" y2="255.142" stroke="#EE9561"/>
<line x1="93.1805" y1="181.577" x2="-133.247" y2="321.016" stroke="#EE9561"/>
<line x1="93.1805" y1="181.577" x2="-133.247" y2="321.016" stroke="#EE9561"/>
<line x1="-89.5888" y1="137.395" x2="49.8498" y2="363.822" stroke="#EE9561"/>
<line x1="-137.494" y1="186.902" x2="96.8882" y2="313.496" stroke="#EE9561"/>
<line x1="43.9945" y1="133.078" x2="-83.2415" y2="368.648" stroke="#EE9561"/>
<circle cx="-20.2953" cy="250.87" r="127.605" transform="rotate(88.3743 -20.2953 250.87)" stroke="#EE9561" stroke-width="3"/>
<path d="M-16.5101 384.239C-89.6324 386.314 -150.61 328.289 -152.701 254.628C-154.791 180.967 -97.2026 119.577 -24.0803 117.502C49.0419 115.426 110.02 173.452 112.11 247.113C114.201 320.774 56.6121 382.164 -16.5101 384.239Z" stroke="#EE9561"/>
<path d="M-16.8381 372.682C-83.5773 374.576 -139.234 321.579 -141.144 254.3C-143.053 187.022 -90.4915 130.953 -23.7524 129.059C42.9868 127.165 98.644 180.162 100.553 247.441C102.463 314.719 49.901 370.788 -16.8381 372.682Z" stroke="#EE9561"/>
<path d="M12.3744 281.25C-4.8951 281.741 -19.311 267.924 -19.809 250.375C-20.3071 232.825 -6.69804 218.214 10.5714 217.723C27.8409 217.233 42.2568 231.05 42.7548 248.599C43.2529 266.149 29.6439 280.76 12.3744 281.25Z" stroke="#EE9561"/>
<path d="M72.0503 337.972C59.4806 339.47 46.7394 338.399 34.5845 334.823C22.4297 331.246 11.1092 325.238 1.29672 317.154C-8.51583 309.07 -16.6201 299.075 -22.5337 287.765C-28.4474 276.455 -32.0496 264.06 -33.1259 251.317C-34.2022 238.575 -32.7306 225.745 -28.7987 213.592C-24.8668 201.438 -18.5551 190.21 -10.2391 180.574C-1.92315 170.937 8.22712 163.09 19.6078 157.499C30.9885 151.908 43.3672 148.686 56.0078 148.026" stroke="#EE9561"/>
<path d="M-55.0857 298.587C-92.305 299.643 -123.346 270.112 -124.41 232.62C-125.474 195.128 -96.1579 163.885 -58.9386 162.829C-21.7193 161.772 9.32138 191.303 10.3854 228.795C11.4495 266.287 -17.8664 297.53 -55.0857 298.587Z" stroke="#EE9561"/>
<path d="M5.21164 292.074L6.30094 291.541L6.77122 290.424L7.30415 291.513L8.42192 291.983L7.33262 292.516L6.86233 293.634L6.32941 292.545L5.21164 292.074ZM-0.406343 292.234L0.682954 291.701L1.15324 290.583L1.68616 291.672L2.80393 292.143L1.71464 292.676L1.24435 293.793L0.711425 292.704L-0.406343 292.234ZM0.683623 288.187L2.86222 287.121L3.80279 284.885L4.86864 287.064L7.10418 288.005L4.92558 289.07L3.98501 291.306L2.91916 289.127L0.683623 288.187Z" fill="#EE9561"/>
<path d="M36.1727 323.98L37.7048 323.23L38.3662 321.658L39.1158 323.19L40.688 323.852L39.1559 324.601L38.4944 326.174L37.7448 324.641L36.1727 323.98ZM35.6723 326.254L36.4384 325.879L36.7691 325.093L37.1439 325.859L37.93 326.19L37.1639 326.564L36.8332 327.35L36.4584 326.584L35.6723 326.254Z" fill="#EE9561"/>
<path d="M-5.9237 335.844L-4.12318 333.91L-4.19732 331.297L-1.58496 331.223L0.244451 329.316L2.17909 331.116L4.79145 331.042L4.8656 333.655L6.77294 335.484L4.97242 337.419L5.04656 340.031L2.4342 340.105L0.604791 342.012L-1.32985 340.212L-3.94221 340.286L-4.01635 337.674L-5.9237 335.844Z" fill="#EE9561"/>
<path d="M23.1873 288.669L26.5923 289.355L28.7931 286.666L29.1925 290.125L32.421 291.382L29.269 292.821L29.0665 296.297L26.7167 293.737L23.3561 294.616L25.0654 291.591L23.1873 288.669Z" fill="#EE9561"/>
<path d="M76.4142 296.234L79.8193 296.921L82.0201 294.232L82.4194 297.69L85.6479 298.948L82.4959 300.387L82.2934 303.863L79.9436 301.303L76.583 302.181L78.2924 299.157L76.4142 296.234Z" fill="#EE9561"/>
<path d="M45.2557 307.777L46.3908 308.006L47.1244 307.11L47.2575 308.263L48.3336 308.682L47.283 309.162L47.2155 310.32L46.4322 309.467L45.312 309.76L45.8818 308.752L45.2557 307.777Z" fill="#EE9561"/>
<path d="M2.25579 181.729L3.78791 180.98L4.44937 179.408L5.19894 180.94L6.77111 181.601L5.23899 182.351L4.57752 183.923L3.82795 182.391L2.25579 181.729ZM1.75545 184.003L2.52151 183.628L2.85224 182.842L3.22703 183.608L4.01311 183.939L3.24705 184.314L2.91632 185.1L2.54153 184.334L1.75545 184.003Z" fill="#EE9561"/>
<path d="M37.469 187.229L40.4353 185.778L41.716 182.734L43.1672 185.7L46.2111 186.981L43.2448 188.432L41.9641 191.476L40.5128 188.51L37.469 187.229ZM36.5003 191.631L37.9834 190.906L38.6238 189.384L39.3494 190.867L40.8713 191.507L39.3881 192.233L38.7478 193.755L38.0222 192.272L36.5003 191.631Z" fill="#EE9561"/>
<path d="M-0.746499 164.211L0.124938 163.785L0.501168 162.89L0.927508 163.762L1.82172 164.138L0.950285 164.564L0.574056 165.459L0.147716 164.587L-0.746499 164.211ZM-1.03108 165.504L-0.595364 165.291L-0.407249 164.844L-0.194079 165.28L0.253028 165.468L-0.182691 165.681L-0.370805 166.128L-0.583975 165.692L-1.03108 165.504Z" fill="#EE9561"/>
<path d="M45.0377 181.225L45.9091 180.799L46.2853 179.904L46.7117 180.776L47.6059 181.152L46.7345 181.578L46.3582 182.473L45.9319 181.601L45.0377 181.225ZM44.7531 182.518L45.1888 182.305L45.3769 181.858L45.5901 182.294L46.0372 182.482L45.6015 182.695L45.4134 183.142L45.2002 182.706L44.7531 182.518Z" fill="#EE9561"/>
<path d="M21.4993 162.922L26.1576 163.861L29.1684 160.183L29.7148 164.914L34.1315 166.635L29.8195 168.603L29.5424 173.358L26.3277 169.856L21.7302 171.058L24.0687 166.92L21.4993 162.922Z" fill="#EE9561"/>
<path d="M84.7298 255.279L85.6013 254.853L85.9775 253.959L86.4038 254.83L87.298 255.207L86.4266 255.633L86.0504 256.527L85.624 255.656L84.7298 255.279ZM84.4452 256.573L84.881 256.359L85.0691 255.912L85.2822 256.348L85.7293 256.536L85.2936 256.749L85.1055 257.196L84.8923 256.761L84.4452 256.573Z" fill="#EE9561"/>
<path d="M50.7423 280.34L51.6137 279.914L51.9899 279.02L52.4163 279.891L53.3105 280.268L52.4391 280.694L52.0628 281.588L51.6365 280.717L50.7423 280.34ZM50.4577 281.634L50.8934 281.421L51.0815 280.973L51.2947 281.409L51.7418 281.597L51.3061 281.81L51.118 282.258L50.9048 281.822L50.4577 281.634Z" fill="#EE9561"/>
<path d="M35.4294 352.101L36.3008 351.674L36.6771 350.78L37.1034 351.651L37.9976 352.028L37.1262 352.454L36.75 353.348L36.3236 352.477L35.4294 352.101ZM35.1448 353.394L35.5805 353.181L35.7687 352.734L35.9818 353.169L36.4289 353.357L35.9932 353.571L35.8051 354.018L35.5919 353.582L35.1448 353.394Z" fill="#EE9561"/>
<path d="M0.121665 228.765L0.993103 228.338L1.36933 227.444L1.79567 228.316L2.68989 228.692L1.81845 229.118L1.44222 230.013L1.01588 229.141L0.121665 228.765ZM-0.162918 230.058L0.2728 229.845L0.460915 229.398L0.674085 229.833L1.12119 230.022L0.685474 230.235L0.497359 230.682L0.284189 230.246L-0.162918 230.058Z" fill="#EE9561"/>
<path d="M64.0549 307.914L64.9263 307.488L65.3026 306.594L65.7289 307.465L66.6231 307.842L65.7517 308.268L65.3754 309.162L64.9491 308.291L64.0549 307.914ZM63.7703 309.208L64.206 308.995L64.3941 308.547L64.6073 308.983L65.0544 309.171L64.6187 309.384L64.4306 309.832L64.2174 309.396L63.7703 309.208Z" fill="#EE9561"/>
<path d="M76.8001 281.529L77.6716 281.102L78.0478 280.208L78.4741 281.08L79.3684 281.456L78.4969 281.882L78.1207 282.776L77.6943 281.905L76.8001 281.529ZM76.5155 282.822L76.9513 282.609L77.1394 282.162L77.3526 282.597L77.7997 282.785L77.3639 282.999L77.1758 283.446L76.9627 283.01L76.5155 282.822Z" fill="#EE9561"/>
<path d="M55.4255 227.436L56.5148 226.903L56.9851 225.786L57.518 226.875L58.6358 227.345L57.5465 227.878L57.0762 228.996L56.5433 227.907L55.4255 227.436ZM49.8075 227.596L50.8968 227.063L51.3671 225.945L51.9 227.034L53.0178 227.505L51.9285 228.038L51.4582 229.155L50.9253 228.066L49.8075 227.596ZM50.8975 223.549L53.0761 222.483L54.0167 220.247L55.0825 222.426L57.318 223.367L55.1394 224.432L54.1989 226.668L53.133 224.489L50.8975 223.549Z" fill="#EE9561"/>
<path d="M86.3865 259.342L87.9186 258.592L88.5801 257.02L89.3297 258.552L90.9018 259.214L89.3697 259.963L88.7083 261.535L87.9587 260.003L86.3865 259.342ZM85.8862 261.616L86.6522 261.241L86.983 260.455L87.3578 261.221L88.1438 261.551L87.3778 261.926L87.0471 262.712L86.6723 261.946L85.8862 261.616Z" fill="#EE9561"/>
<path d="M44.2902 271.206L46.0907 269.272L46.0165 266.659L48.6289 266.585L50.4583 264.678L52.393 266.478L55.0053 266.404L55.0795 269.016L56.9868 270.846L55.1863 272.781L55.2604 275.393L52.6481 275.467L50.8187 277.374L48.884 275.574L46.2717 275.648L46.1975 273.036L44.2902 271.206Z" fill="#EE9561"/>
<path d="M73.4012 224.03L76.8062 224.717L79.007 222.028L79.4064 225.487L82.6348 226.744L79.4829 228.183L79.2803 231.659L76.9306 229.099L73.5699 229.977L75.2793 226.953L73.4012 224.03Z" fill="#EE9561"/>
</g>
</g>
<defs>
<clipPath id="clip0_0_1">
<rect width="360" height="800" fill="white"/>
</clipPath>
</defs>
</svg>
