<svg width="360" height="800" viewBox="0 0 360 800" fill="none" xmlns="http://www.w3.org/2000/svg">
<g clip-path="url(#clip0_18_123)">
<rect width="360" height="800" fill="#1F1F1F"/>
<g opacity="0.2">
<line x1="359.862" y1="185.076" x2="353.717" y2="181.013" stroke="#EE9561"/>
<line x1="352.341" y1="195.117" x2="346.195" y2="191.054" stroke="#EE9561"/>
<line x1="344.786" y1="205.134" x2="337.818" y2="199.644" stroke="#EE9561"/>
<line x1="333.538" y1="215.348" x2="328.819" y2="210.463" stroke="#EE9561"/>
<line x1="323.136" y1="227.006" x2="316.771" y2="219.266" stroke="#EE9561"/>
<line x1="311.068" y1="235.771" x2="306.131" y2="227.208" stroke="#EE9561"/>
<line x1="298.224" y1="243.177" x2="294.109" y2="236.041" stroke="#EE9561"/>
<line x1="279.672" y1="253.874" x2="275.557" y2="246.738" stroke="#EE9561"/>
<line x1="268.255" y1="260.457" x2="263.317" y2="251.894" stroke="#EE9561"/>
<line x1="255.975" y1="265.523" x2="253.287" y2="257.565" stroke="#EE9561"/>
<line x1="244.339" y1="268.429" x2="241.652" y2="260.47" stroke="#EE9561"/>
<line x1="231.255" y1="272.068" x2="229.995" y2="263.287" stroke="#EE9561"/>
<line x1="216.761" y1="276.579" x2="216.105" y2="265.548" stroke="#EE9561"/>
<line x1="202.053" y1="277.453" x2="201.397" y2="266.422" stroke="#EE9561"/>
<line x1="187.347" y1="278.238" x2="188.337" y2="270.061" stroke="#EE9561"/>
<line x1="165.886" y1="277.39" x2="165.449" y2="270.035" stroke="#EE9561"/>
<line x1="148.121" y1="276.073" x2="149.934" y2="269.324" stroke="#EE9561"/>
<line x1="135.445" y1="273.875" x2="137.257" y2="267.125" stroke="#EE9561"/>
<line x1="122.754" y1="271.746" x2="123.744" y2="263.569" stroke="#EE9561"/>
<line x1="109.268" y1="268.051" x2="111.08" y2="261.301" stroke="#EE9561"/>
<line x1="97.2182" y1="263.536" x2="100.458" y2="255.963" stroke="#EE9561"/>
<line x1="85.1455" y1="259.088" x2="88.3854" y2="251.515" stroke="#EE9561"/>
<line x1="74.4999" y1="253.816" x2="77.7397" y2="246.244" stroke="#EE9561"/>
<line x1="52.4284" y1="241.768" x2="56.491" y2="235.622" stroke="#EE9561"/>
<line x1="42.4114" y1="234.213" x2="47.9012" y2="227.245" stroke="#EE9561"/>
<line x1="32.3699" y1="226.692" x2="37.8597" y2="219.724" stroke="#EE9561"/>
<line x1="21.5246" y1="217.721" x2="28.4415" y2="209.93" stroke="#EE9561"/>
<line x1="11.3086" y1="206.479" x2="17.6212" y2="200.938" stroke="#EE9561"/>
<line x1="1.87144" y1="196.708" x2="8.1841" y2="191.167" stroke="#EE9561"/>
<line x1="-6.12628" y1="186.104" x2="1.61348" y2="179.739" stroke="#EE9561"/>
<line x1="-20.6514" y1="164.046" x2="373.23" y2="-63.0653" stroke="#EE9561"/>
<line x1="62.3282" y1="247.485" x2="289.884" y2="-146.139" stroke="#EE9561"/>
<line x1="62.3282" y1="247.485" x2="289.884" y2="-146.139" stroke="#EE9561"/>
<line x1="373.101" y1="165.134" x2="-20.5237" y2="-62.4212" stroke="#EE9561"/>
<line x1="404.829" y1="51.7016" x2="-50.6372" y2="51.4447" stroke="#EE9561"/>
<line x1="175.76" y1="280.368" x2="176.018" y2="-177.407" stroke="#EE9561"/>
<line x1="290.484" y1="249.541" x2="61.7272" y2="-147.194" stroke="#EE9561"/>
<circle cx="176.539" cy="50.9235" r="219.244" transform="rotate(-119.968 176.539 50.9235)" stroke="#EE9561" stroke-width="3"/>
<path d="M62.4102 -147.011C170.935 -209.586 310.013 -171.701 373.046 -62.3821C436.079 46.937 399.193 186.283 290.668 248.858C182.142 311.434 43.0647 273.549 -19.9685 164.23C-83.0018 54.9104 -46.1149 -84.4354 62.4102 -147.011Z" stroke="#EE9561"/>
<path d="M72.2845 -129.886C171.351 -187.007 298.341 -152.369 355.921 -52.5078C413.501 47.3536 379.86 174.611 280.793 231.733C181.726 288.855 54.7367 254.216 -2.84325 154.355C-60.4232 54.4936 -26.7822 -72.7639 72.2845 -129.886Z" stroke="#EE9561"/>
<path d="M102.539 31.4168C128.304 16.5612 161.427 25.7163 176.517 51.8869C191.607 78.0575 182.936 111.311 157.172 126.167C131.408 141.022 98.2843 131.867 83.1944 105.697C68.1045 79.526 76.7752 46.2724 102.539 31.4168Z" stroke="#EE9561"/>
<path d="M-33.3311 -5.48332C-15.5924 -17.9685 4.49485 -26.7186 25.7358 -31.2129C46.9768 -35.7072 68.9379 -35.854 90.3129 -31.6443C111.688 -27.4347 132.04 -18.9545 150.159 -6.70795C168.278 5.53862 183.793 21.3013 195.782 39.6427C207.77 57.984 215.987 78.5292 219.944 100.056C223.9 121.583 223.515 143.651 218.813 164.949C214.11 186.246 205.185 206.338 192.57 224.029C179.954 241.719 163.905 256.648 145.378 267.926" stroke="#EE9561"/>
<path d="M189.985 -49.4289C245.308 -81.3285 316.206 -62.0236 348.336 -6.29996C380.466 49.4237 361.656 120.454 306.332 152.354C251.008 184.253 180.111 164.948 147.981 109.225C115.85 53.5011 134.661 -17.5294 189.985 -49.4289Z" stroke="#EE9561"/>
<path d="M104.71 9.62182L103.503 11.308L103.703 13.3718L102.016 12.1651L99.9526 12.3647L101.159 10.6786L100.96 8.61475L102.646 9.8214L104.71 9.62182ZM113.034 4.82176L111.828 6.50791L112.027 8.57171L110.341 7.36507L108.277 7.56465L109.484 5.8785L109.284 3.8147L110.971 5.02135L113.034 4.82176ZM114.679 11.7966L112.266 15.1689L112.665 19.2965L109.293 16.8832L105.165 17.2824L107.578 13.9101L107.179 9.78249L110.552 12.1958L114.679 11.7966Z" fill="#EE9561"/>
<path d="M80.4236 29.3378L74.7423 31.0686L73.6131 36.9014L70.2048 32.021L64.3255 32.7488L67.9008 28.0251L65.3844 22.6304L70.9983 24.5752L75.3424 20.5254L75.225 26.4642L80.4236 29.3378Z" fill="#EE9561"/>
<path d="M31.7033 18.4951L29.8096 19.072L29.4332 21.0163L28.2971 19.3895L26.3373 19.6321L27.5291 18.0575L26.6903 16.2593L28.5616 16.9076L30.0096 15.5576L29.9705 17.5372L31.7033 18.4951Z" fill="#EE9561"/>
<path d="M326.425 84.8166L324.056 88.1276L324.448 92.1801L321.137 89.8107L317.084 90.2026L319.454 86.8916L319.062 82.8391L322.373 85.2085L326.425 84.8166ZM342.772 75.391L340.403 78.702L340.795 82.7545L337.484 80.3851L333.431 80.777L335.801 77.4661L335.409 73.4135L338.72 75.7829L342.772 75.391ZM346.002 89.0871L341.263 95.7091L342.047 103.814L335.425 99.0753L327.32 99.8592L332.059 93.2372L331.275 85.1321L337.897 89.8709L346.002 89.0871Z" fill="#EE9561"/>
<path d="M267.311 67.9663L265.614 70.3379L265.894 73.2407L263.523 71.5435L260.62 71.8242L262.317 69.4526L262.036 66.5498L264.408 68.247L267.311 67.9663ZM266.218 64.1386L265.37 65.3244L265.51 66.7758L264.324 65.9272L262.873 66.0676L263.721 64.8818L263.581 63.4304L264.767 64.279L266.218 64.1386Z" fill="#EE9561"/>
<path d="M198.725 173.275L197.028 175.647L197.308 178.55L194.937 176.852L192.034 177.133L193.731 174.761L193.45 171.859L195.822 173.556L198.725 173.275ZM197.632 169.448L196.784 170.633L196.924 172.085L195.738 171.236L194.287 171.376L195.135 170.191L194.995 168.739L196.181 169.588L197.632 169.448Z" fill="#EE9561"/>
<path d="M256.85 145.465L255.153 147.836L255.434 150.739L253.062 149.042L250.16 149.323L251.857 146.951L251.576 144.048L253.948 145.745L256.85 145.465ZM255.758 141.637L254.909 142.823L255.05 144.274L253.864 143.426L252.412 143.566L253.261 142.38L253.121 140.929L254.306 141.777L255.758 141.637Z" fill="#EE9561"/>
<path d="M235.802 39.7038L234.105 42.0754L234.386 44.9782L232.014 43.281L229.111 43.5617L230.808 41.1901L230.528 38.2874L232.899 39.9845L235.802 39.7038ZM234.71 35.8762L233.861 37.062L234.001 38.5134L232.816 37.6648L231.364 37.8051L232.213 36.6193L232.072 35.1679L233.258 36.0165L234.71 35.8762Z" fill="#EE9561"/>
<path d="M274.385 30.7677L272.688 33.1393L272.969 36.0421L270.597 34.3449L267.695 34.6257L269.392 32.254L269.111 29.3513L271.483 31.0484L274.385 30.7677ZM273.293 26.9401L272.444 28.1259L272.585 29.5773L271.399 28.7287L269.947 28.869L270.796 27.6832L270.656 26.2318L271.841 27.0804L273.293 26.9401Z" fill="#EE9561"/>
<path d="M296.988 63.3725L295.291 65.7441L295.572 68.6469L293.2 66.9497L290.298 67.2304L291.995 64.8588L291.714 61.9561L294.086 63.6532L296.988 63.3725ZM295.896 59.5449L295.047 60.7307L295.188 62.1821L294.002 61.3335L292.55 61.4738L293.399 60.288L293.259 58.8366L294.444 59.6852L295.896 59.5449Z" fill="#EE9561"/>
<path d="M314.617 25.8992L314.013 28.2158L315.195 30.2665L313.145 31.449L312.506 33.7562L310.19 33.1527L308.139 34.3352L306.957 32.2844L304.649 31.6462L305.253 29.3296L304.07 27.2789L306.121 26.0964L306.759 23.7892L309.076 24.3926L311.127 23.2102L312.309 25.2609L314.617 25.8992Z" fill="#EE9561"/>
<path d="M289.971 157.232L286.657 158.242L285.998 161.645L284.01 158.798L280.58 159.222L282.666 156.467L281.198 153.32L284.473 154.454L287.007 152.092L286.938 155.556L289.971 157.232Z" fill="#EE9561"/>
<path d="M241.919 207.186L240.471 209.209L240.71 211.686L238.687 210.238L236.21 210.477L237.658 208.454L237.419 205.977L239.442 207.425L241.919 207.186ZM251.909 201.426L250.461 203.449L250.7 205.925L248.677 204.477L246.2 204.717L247.648 202.694L247.409 200.217L249.432 201.665L251.909 201.426ZM253.882 209.795L250.986 213.842L251.465 218.795L247.419 215.899L242.465 216.378L245.361 212.331L244.882 207.378L248.929 210.274L253.882 209.795Z" fill="#EE9561"/>
<path d="M141.27 193.581L137.984 198.173L138.528 203.793L133.936 200.507L128.316 201.05L131.602 196.459L131.059 190.839L135.65 194.124L141.27 193.581ZM139.155 186.17L137.512 188.466L137.784 191.276L135.488 189.633L132.678 189.905L134.321 187.609L134.049 184.799L136.345 186.442L139.155 186.17Z" fill="#EE9561"/>
<path d="M217.463 197.2L216.497 198.549L216.657 200.2L215.308 199.235L213.657 199.395L214.622 198.046L214.463 196.395L215.812 197.36L217.463 197.2ZM216.841 195.023L216.358 195.698L216.438 196.523L215.764 196.041L214.938 196.12L215.421 195.446L215.341 194.62L216.016 195.103L216.841 195.023Z" fill="#EE9561"/>
<path d="M134.754 208.76L133.789 210.109L133.949 211.76L132.6 210.795L130.949 210.954L131.914 209.605L131.754 207.954L133.103 208.92L134.754 208.76ZM134.133 206.583L133.65 207.257L133.73 208.083L133.055 207.6L132.23 207.68L132.713 207.006L132.633 206.18L133.307 206.663L134.133 206.583Z" fill="#EE9561"/>
<path d="M202.391 132.997L201.577 136.121L203.171 138.886L200.406 140.48L199.546 143.591L196.422 142.777L193.657 144.372L192.063 141.607L188.952 140.746L189.766 137.623L188.171 134.858L190.936 133.263L191.797 130.152L194.92 130.966L197.686 129.372L199.28 132.137L202.391 132.997Z" fill="#EE9561"/>
<path d="M185.032 217.197L177.26 219.565L175.715 227.545L171.052 220.868L163.009 221.864L167.9 215.401L164.458 208.021L172.138 210.682L178.081 205.141L177.92 213.266L185.032 217.197Z" fill="#EE9561"/>
<path d="M14.9135 129.538L13.9482 130.887L14.1079 132.538L12.759 131.572L11.1079 131.732L12.0732 130.383L11.9136 128.732L13.2625 129.697L14.9135 129.538ZM14.2921 127.361L13.8094 128.035L13.8893 128.861L13.2148 128.378L12.3893 128.458L12.8719 127.783L12.7921 126.958L13.4666 127.44L14.2921 127.361Z" fill="#EE9561"/>
<path d="M45.7176 64.2369L44.7523 65.5858L44.912 67.2368L43.563 66.2715L41.912 66.4312L42.8773 65.0823L42.7177 63.4312L44.0666 64.3965L45.7176 64.2369ZM45.0962 62.0598L44.6135 62.7342L44.6933 63.5598L44.0189 63.0771L43.1934 63.1569L43.676 62.4825L43.5962 61.6569L44.2706 62.1396L45.0962 62.0598Z" fill="#EE9561"/>
<path d="M235.101 109.066L234.136 110.415L234.295 112.066L232.946 111.1L231.295 111.26L232.261 109.911L232.101 108.26L233.45 109.225L235.101 109.066ZM234.48 106.889L233.997 107.563L234.077 108.389L233.402 107.906L232.577 107.986L233.059 107.311L232.98 106.486L233.654 106.969L234.48 106.889Z" fill="#EE9561"/>
<path d="M303.411 178.068L302.446 179.417L302.605 181.068L301.256 180.102L299.605 180.262L300.571 178.913L300.411 177.262L301.76 178.227L303.411 178.068ZM302.789 175.891L302.307 176.565L302.387 177.391L301.712 176.908L300.887 176.988L301.369 176.313L301.289 175.488L301.964 175.971L302.789 175.891Z" fill="#EE9561"/>
<path d="M163.758 100.761L162.792 102.11L162.952 103.761L161.603 102.796L159.952 102.956L160.917 101.607L160.758 99.9558L162.107 100.921L163.758 100.761ZM163.136 98.5844L162.654 99.2588L162.733 100.084L162.059 99.6017L161.233 99.6815L161.716 99.0071L161.636 98.1815L162.311 98.6642L163.136 98.5844Z" fill="#EE9561"/>
<path d="M3.30209 33.5478L2.33677 34.8968L2.49644 36.5478L1.14751 35.5825L-0.503528 35.7422L0.461791 34.3932L0.302124 32.7422L1.65105 33.7075L3.30209 33.5478ZM2.68063 31.3707L2.19797 32.0452L2.27781 32.8707L1.60335 32.3881L0.777826 32.4679L1.26049 31.7934L1.18065 30.9679L1.85511 31.4506L2.68063 31.3707Z" fill="#EE9561"/>
<path d="M5.54012 83.6001L4.57481 84.949L4.73447 86.6L3.38555 85.6347L1.73451 85.7944L2.69983 84.4455L2.54016 82.7944L3.88908 83.7598L5.54012 83.6001ZM4.91867 81.423L4.43601 82.0975L4.51584 82.923L3.84138 82.4403L3.01586 82.5201L3.49852 81.8457L3.41869 81.0202L4.09315 81.5028L4.91867 81.423Z" fill="#EE9561"/>
<path d="M81.6123 147.651L80.4056 149.337L80.6052 151.401L78.919 150.194L76.8552 150.394L78.0619 148.708L77.8623 146.644L79.5485 147.85L81.6123 147.651ZM89.937 142.851L88.7304 144.537L88.93 146.601L87.2438 145.394L85.18 145.594L86.3867 143.907L86.1871 141.844L87.8732 143.05L89.937 142.851ZM91.5818 149.826L89.1685 153.198L89.5676 157.326L86.1953 154.912L82.0677 155.311L84.481 151.939L84.0819 147.811L87.4542 150.225L91.5818 149.826Z" fill="#EE9561"/>
<path d="M9.12296 124.769L7.42578 127.141L7.7065 130.043L5.3349 128.346L2.43212 128.627L4.1293 126.255L3.84858 123.352L6.22018 125.05L9.12296 124.769ZM8.03035 120.941L7.18176 122.127L7.32212 123.578L6.13632 122.73L4.68493 122.87L5.53352 121.684L5.39316 120.233L6.57896 121.082L8.03035 120.941Z" fill="#EE9561"/>
<path d="M62.8412 72.7454L61.7021 77.1182L63.9341 80.9892L60.0631 83.2212L58.8583 87.5764L54.4855 86.4373L50.6145 88.6693L48.3824 84.7983L44.0272 83.5935L45.1664 79.2207L42.9344 75.3496L46.8054 73.1176L48.0102 68.7624L52.383 69.9016L56.254 67.6696L58.486 71.5406L62.8412 72.7454Z" fill="#EE9561"/>
<path d="M184.232 45.5368L183.337 48.9726L185.091 52.0141L182.049 53.7678L181.103 57.1898L177.667 56.2947L174.625 58.0485L172.872 55.0069L169.45 54.0603L170.345 50.6245L168.591 47.583L171.633 45.8293L172.579 42.4073L176.015 43.3024L179.057 41.5487L180.81 44.5902L184.232 45.5368Z" fill="#EE9561"/>
<path d="M57.3262 167.367L51.6449 169.098L50.5157 174.931L47.1074 170.05L41.2281 170.778L44.8033 166.054L42.287 160.66L47.9008 162.604L52.245 158.555L52.1276 164.493L57.3262 167.367Z" fill="#EE9561"/>
</g>
<g opacity="0.2">
<line x1="93.1815" y1="690.534" x2="95.9193" y2="695.641" stroke="#EE9561"/>
<line x1="102.139" y1="686.39" x2="104.877" y2="691.498" stroke="#EE9561"/>
<line x1="111.096" y1="682.247" x2="113.834" y2="687.355" stroke="#EE9561"/>
<line x1="120.071" y1="678.141" x2="122.846" y2="684.544" stroke="#EE9561"/>
<line x1="131.679" y1="675.283" x2="133.121" y2="680.427" stroke="#EE9561"/>
<line x1="143.236" y1="671.105" x2="144.752" y2="678.84" stroke="#EE9561"/>
<line x1="154.867" y1="669.56" x2="155.087" y2="677.333" stroke="#EE9561"/>
<line x1="166.525" y1="669.229" x2="166.709" y2="675.706" stroke="#EE9561"/>
<line x1="183.365" y1="668.752" x2="183.549" y2="675.228" stroke="#EE9561"/>
<line x1="193.728" y1="668.457" x2="193.948" y2="676.23" stroke="#EE9561"/>
<line x1="204.121" y1="669.557" x2="203.009" y2="676.071" stroke="#EE9561"/>
<line x1="213.262" y1="671.89" x2="212.15" y2="678.404" stroke="#EE9561"/>
<line x1="223.675" y1="674.275" x2="221.268" y2="680.826" stroke="#EE9561"/>
<line x1="235.391" y1="676.574" x2="231.725" y2="684.456" stroke="#EE9561"/>
<line x1="245.901" y1="681.461" x2="242.235" y2="689.343" stroke="#EE9561"/>
<line x1="256.366" y1="686.426" x2="252.627" y2="691.718" stroke="#EE9561"/>
<line x1="270.917" y1="695.012" x2="268.473" y2="700.267" stroke="#EE9561"/>
<line x1="282.706" y1="702.585" x2="278.93" y2="706.582" stroke="#EE9561"/>
<line x1="290.662" y1="708.842" x2="286.886" y2="712.838" stroke="#EE9561"/>
<line x1="298.663" y1="715.043" x2="294.924" y2="720.335" stroke="#EE9561"/>
<line x1="306.611" y1="722.65" x2="302.835" y2="726.646" stroke="#EE9561"/>
<line x1="313.256" y1="730.286" x2="308.185" y2="734.319" stroke="#EE9561"/>
<line x1="319.954" y1="737.874" x2="314.882" y2="741.907" stroke="#EE9561"/>
<line x1="325.356" y1="745.499" x2="320.284" y2="749.533" stroke="#EE9561"/>
<line x1="336.121" y1="762.095" x2="331.014" y2="764.832" stroke="#EE9561"/>
<line x1="340.227" y1="771.07" x2="333.824" y2="773.844" stroke="#EE9561"/>
<line x1="344.371" y1="780.027" x2="337.968" y2="782.802" stroke="#EE9561"/>
<line x1="348.524" y1="790.291" x2="340.825" y2="793.102" stroke="#EE9561"/>
<line x1="331.408" y1="754.436" x2="26.8583" y2="941.984" stroke="#EE9561"/>
<line x1="331.408" y1="754.436" x2="26.8583" y2="941.984" stroke="#EE9561"/>
<line x1="85.5227" y1="695.247" x2="273.071" y2="999.797" stroke="#EE9561"/>
<line x1="21.1539" y1="761.896" x2="336.404" y2="932.169" stroke="#EE9561"/>
<line x1="265.19" y1="689.268" x2="94.0551" y2="1006.12" stroke="#EE9561"/>
<line x1="174.261" y1="667.714" x2="184.481" y2="1027.83" stroke="#EE9561"/>
<circle cx="178.871" cy="847.784" r="172.149" transform="rotate(88.3743 178.871 847.784)" stroke="#EE9561" stroke-width="3"/>
<path d="M183.967 1027.34C85.5196 1030.13 3.42452 952.013 0.610009 852.843C-2.2045 753.673 75.3277 671.022 173.775 668.228C272.223 665.433 354.318 743.555 357.132 842.725C359.947 941.895 282.415 1024.55 183.967 1027.34Z" stroke="#EE9561"/>
<path d="M183.526 1011.8C93.6637 1014.35 18.7253 942.987 16.1544 852.402C13.5836 761.817 84.3541 686.322 174.216 683.772C264.079 681.222 339.017 752.581 341.588 843.166C344.159 933.751 273.388 1009.25 183.526 1011.8Z" stroke="#EE9561"/>
<path d="M303.098 965.108C286.168 967.126 269.008 965.684 252.637 960.867C236.266 956.051 221.019 947.958 207.803 937.07C194.587 926.182 183.672 912.721 175.707 897.488C167.742 882.255 162.891 865.561 161.441 848.399C159.992 831.237 161.974 813.959 167.269 797.59C172.565 781.222 181.066 766.099 192.266 753.12C203.466 740.142 217.137 729.573 232.465 722.042C247.793 714.512 264.466 710.173 281.491 709.284" stroke="#EE9561"/>
<path d="M132.082 912.136C81.9247 913.559 40.096 873.764 38.6622 823.242C37.2283 772.721 76.7326 730.617 126.89 729.193C177.047 727.77 218.876 767.565 220.31 818.087C221.743 868.609 182.239 910.712 132.082 912.136Z" stroke="#EE9561"/>
<path d="M87.7533 768.342L90.6303 766.935L91.8724 763.983L93.2799 766.86L96.2321 768.102L93.3551 769.509L92.113 772.462L90.7055 769.585L87.7533 768.342ZM72.9155 768.764L75.7924 767.356L77.0345 764.404L78.4421 767.281L81.3942 768.523L78.5173 769.93L77.2752 772.883L75.8676 770.006L72.9155 768.764ZM75.7942 758.075L81.5482 755.26L84.0324 749.355L86.8474 755.109L92.7518 757.594L86.9978 760.409L84.5136 766.313L81.6986 760.559L75.7942 758.075Z" fill="#EE9561"/>
<path d="M122.389 802.085L124.45 801.077L125.339 798.963L126.348 801.023L128.462 801.913L126.402 802.921L125.512 805.036L124.504 802.975L122.389 802.085ZM121.716 805.144L122.746 804.64L123.191 803.582L123.695 804.613L124.753 805.057L123.722 805.562L123.277 806.619L122.773 805.588L121.716 805.144Z" fill="#EE9561"/>
<path d="M209.203 754.787L211.263 753.779L212.153 751.665L213.161 753.725L215.276 754.615L213.215 755.623L212.325 757.738L211.317 755.677L209.203 754.787ZM208.53 757.846L209.56 757.342L210.005 756.284L210.509 757.315L211.566 757.759L210.536 758.264L210.091 759.321L209.587 758.29L208.53 757.846Z" fill="#EE9561"/>
<path d="M158.573 752.335L160.634 751.327L161.523 749.212L162.532 751.273L164.646 752.163L162.586 753.171L161.696 755.286L160.688 753.225L158.573 752.335ZM157.9 755.393L158.93 754.889L159.375 753.832L159.879 754.862L160.937 755.307L159.906 755.811L159.461 756.869L158.957 755.838L157.9 755.393Z" fill="#EE9561"/>
<path d="M100.126 794.183L102.187 793.175L103.076 791.06L104.084 793.121L106.199 794.01L104.138 795.019L103.249 797.133L102.24 795.072L100.126 794.183ZM99.4528 797.241L100.483 796.737L100.928 795.68L101.432 796.71L102.489 797.155L101.459 797.659L101.014 798.716L100.51 797.686L99.4528 797.241Z" fill="#EE9561"/>
<path d="M140.037 731.819L142.708 732.357L144.435 730.248L144.748 732.961L147.281 733.948L144.808 735.077L144.649 737.804L142.806 735.796L140.169 736.485L141.51 734.112L140.037 731.819Z" fill="#EE9561"/>
<path d="M191.961 715.178L193.719 714.318L194.478 712.514L195.338 714.272L197.142 715.031L195.384 715.892L194.625 717.696L193.765 715.938L191.961 715.178ZM182.893 715.436L184.651 714.576L185.411 712.772L186.271 714.53L188.075 715.289L186.317 716.149L185.558 717.953L184.697 716.195L182.893 715.436ZM184.653 708.904L188.169 707.183L189.687 703.575L191.407 707.092L195.016 708.61L191.499 710.33L189.981 713.938L188.261 710.422L184.653 708.904Z" fill="#EE9561"/>
<path d="M256.565 762.185L260.555 760.233L262.278 756.139L264.23 760.129L268.324 761.851L264.334 763.803L262.611 767.897L260.659 763.908L256.565 762.185ZM255.262 768.106L257.257 767.13L258.118 765.083L259.094 767.078L261.141 767.939L259.147 768.915L258.285 770.962L257.309 768.967L255.262 768.106Z" fill="#EE9561"/>
<path d="M205.165 731.225L206.337 730.652L206.843 729.449L207.416 730.621L208.619 731.127L207.447 731.7L206.941 732.903L206.367 731.731L205.165 731.225ZM204.782 732.964L205.368 732.678L205.621 732.076L205.908 732.662L206.509 732.915L205.923 733.202L205.67 733.803L205.383 733.217L204.782 732.964Z" fill="#EE9561"/>
<path d="M266.745 754.109L267.917 753.536L268.423 752.333L268.997 753.505L270.2 754.011L269.028 754.585L268.522 755.787L267.948 754.615L266.745 754.109ZM266.363 755.849L266.949 755.562L267.202 754.96L267.488 755.547L268.09 755.8L267.504 756.086L267.251 756.688L266.964 756.102L266.363 755.849Z" fill="#EE9561"/>
<path d="M191.623 781.305L193.353 779.446L193.282 776.937L195.791 776.865L197.549 775.033L199.408 776.763L201.917 776.692L201.989 779.201L203.821 780.959L202.091 782.818L202.162 785.327L199.653 785.399L197.895 787.231L196.036 785.501L193.527 785.572L193.455 783.063L191.623 781.305Z" fill="#EE9561"/>
<path d="M235.086 729.491L241.351 730.755L245.401 725.807L246.136 732.171L252.076 734.485L246.277 737.133L245.904 743.528L241.58 738.818L235.396 740.434L238.542 734.869L235.086 729.491Z" fill="#EE9561"/>
<path d="M160.038 785.659L161.211 785.085L161.717 783.882L162.29 785.055L163.493 785.561L162.321 786.134L161.815 787.337L161.241 786.165L160.038 785.659ZM159.656 787.398L160.242 787.111L160.495 786.51L160.781 787.096L161.383 787.349L160.797 787.636L160.544 788.237L160.257 787.651L159.656 787.398Z" fill="#EE9561"/>
<path d="M138.512 712.374L139.684 711.801L140.19 710.598L140.764 711.77L141.967 712.276L140.795 712.849L140.288 714.052L139.715 712.88L138.512 712.374ZM138.13 714.113L138.716 713.827L138.969 713.225L139.255 713.811L139.857 714.064L139.271 714.351L139.018 714.953L138.731 714.366L138.13 714.113Z" fill="#EE9561"/>
</g>
</g>
<defs>
<clipPath id="clip0_18_123">
<rect width="360" height="800" fill="white"/>
</clipPath>
</defs>
</svg>
