<svg width="270" height="116" viewBox="0 0 270 116" fill="none" xmlns="http://www.w3.org/2000/svg">
<rect x="1" y="1" width="268" height="114" rx="13" fill="black" stroke="#353635" stroke-width="2"/>
<path d="M159.92 92.8L160.22 92.78C160.22 94.98 160.773 96.5933 161.88 97.62C162.427 98.14 162.973 98.44 163.52 98.52C164.907 98.7467 165.96 98.4467 166.68 97.62C167.053 97.1933 167.28 96.7533 167.36 96.3C167.573 94.8333 166.62 93.6333 164.5 92.7C164.38 92.6467 163.84 92.4533 162.88 92.12C162.213 91.8933 161.673 91.64 161.26 91.36C159.553 90.1867 158.847 88.4333 159.14 86.1C159.42 83.9267 160.373 82.16 162 80.8C162.307 80.5333 162.473 80.2667 162.5 80C162.527 79.7333 162.42 79.5133 162.18 79.34C161.727 79.1 161.433 79.24 161.3 79.76L161.18 79.72C161.22 79.3333 161.4 78.98 161.72 78.66C162.267 78.14 162.773 78.0867 163.24 78.5C163.6 78.7933 163.68 79.16 163.48 79.6C163.373 79.8267 163.233 80.02 163.06 80.18C163.82 79.6333 164.68 79.2667 165.64 79.08C166.693 78.88 167.633 78.9533 168.46 79.3C169.713 79.82 170.36 80.8267 170.4 82.32C170.44 83.6933 170.013 84.9067 169.12 85.96C167.827 87.48 166.353 88.2133 164.7 88.16L164.74 87.82C165.94 87.8467 166.867 87.3667 167.52 86.38C168.307 85.2467 168.493 84.1933 168.08 83.22C167.88 82.74 167.593 82.3733 167.22 82.12C165.98 81.32 164.447 81.34 162.62 82.18C161.3 82.7933 160.367 83.68 159.82 84.84C159.553 85.4267 159.413 85.9467 159.4 86.4C159.227 88.1867 160.093 89.4 162 90.04C162.373 90.16 162.907 90.2667 163.6 90.36C164.4 90.4667 164.967 90.56 165.3 90.64C166.993 91.04 168.227 91.7333 169 92.72C169.92 93.8667 170.013 95.2267 169.28 96.8C168.48 98.2667 167.013 98.9733 164.88 98.92C163.8 98.9067 162.807 98.74 161.9 98.42C161.42 98.2867 161.053 98.3 160.8 98.46C160.387 98.6067 160.2 99.0267 160.24 99.72H159.92V92.8ZM181.79 83.12C181.764 83.0667 181.21 82.7667 180.13 82.22C179.05 81.6867 178.51 81.4067 178.51 81.38C178.51 81.3267 177.337 81.92 174.99 83.16L178.51 79L181.91 83.18L181.79 83.12ZM174.23 85.58C173.83 86.0067 173.47 86.0333 173.15 85.66C172.95 85.38 172.964 85.1533 173.19 84.98C173.297 84.8867 173.424 84.8267 173.57 84.8C172.877 84.5733 172.33 84.5733 171.93 84.8C171.437 85.1067 171.27 85.5133 171.43 86.02C171.55 86.5267 171.897 86.78 172.47 86.78C172.75 86.78 173.017 86.7333 173.27 86.64C171.924 88.3333 171.31 90.14 171.43 92.06C171.444 94.8333 172.364 96.82 174.19 98.02C175.11 98.62 176.03 98.9467 176.95 99C179.79 99.1733 181.917 98.2133 183.33 96.12C184.05 95.0667 184.477 94 184.61 92.92C185.157 89.9067 184.764 87.5133 183.43 85.74C182.777 84.86 182.064 84.28 181.29 84C179.49 83.24 177.777 83.26 176.15 84.06C175.617 84.3133 175.144 84.6333 174.73 85.02C174.397 85.3267 174.23 85.5133 174.23 85.58ZM173.73 86.44C174.77 85.2267 176.137 84.6 177.83 84.56C178.67 84.5467 179.41 84.6533 180.05 84.88C181.957 85.4933 183.29 86.5733 184.05 88.12C184.424 88.88 184.61 89.5867 184.61 90.24C184.757 92.2133 184.257 93.82 183.11 95.06C182.537 95.6867 181.944 96.1133 181.33 96.34C179.797 96.9533 178.21 96.9867 176.57 96.44C175.757 96.16 175.09 95.82 174.57 95.42C172.624 93.54 171.897 91.48 172.39 89.24C172.644 88.12 173.09 87.1867 173.73 86.44ZM183.59 75.36C183.604 75.32 183.944 75.5533 184.61 76.06C185.304 76.58 185.657 76.8333 185.67 76.82C185.737 76.7533 185.697 76.86 185.55 77.14C185.404 77.4333 185.184 77.7133 184.89 77.98C183.97 78.86 182.597 79.4667 180.77 79.8L181.17 79.48C181.49 79.2 181.784 78.9067 182.05 78.6C182.93 77.5867 183.444 76.5067 183.59 75.36ZM194.313 77.7C194.887 77.6067 195.353 77.3733 195.713 77C196.153 76.56 196.507 76.28 196.773 76.16C197.693 76.52 198.147 77.2867 198.133 78.46L198.033 86.86C198.167 86.3133 198.427 85.7533 198.813 85.18C199.56 84.0467 200.54 83.4333 201.753 83.34C202.353 83.26 202.947 83.3067 203.533 83.48C204.72 83.84 205.313 84.6733 205.313 85.98V97.2C205.287 97.8667 205.48 98.46 205.893 98.98C205.267 98.8867 204.927 98.6467 204.873 98.26C204.7 99.1933 203.767 100.04 202.073 100.8C202.967 99.92 203.413 98.7467 203.413 97.28V86.62C203.467 86.1 203.407 85.6 203.233 85.12C202.9 84.16 202.2 83.7667 201.133 83.94C200.653 84.0067 200.167 84.2733 199.673 84.74C198.673 85.6467 198.127 87.0733 198.033 89.02V98.4H199.533V98.7H194.613V98.4H195.133C195.307 98.4133 195.487 98.36 195.673 98.24C196.02 98 196.193 97.56 196.193 96.92L196.213 79.34C196.267 79.0733 196.227 78.82 196.093 78.58C195.827 78.1 195.233 77.9 194.313 77.98V77.7ZM213.499 83.4C215.339 83.0667 216.905 83.44 218.199 84.52C219.879 85.8933 220.725 87.9467 220.739 90.68C220.725 92.6133 220.292 94.28 219.439 95.68C218.745 96.8133 217.779 97.6533 216.539 98.2C215.339 98.7333 214.085 98.9133 212.779 98.74C209.939 98.3667 208.172 96.7533 207.479 93.9C206.812 91.2067 207.305 88.6933 208.959 86.36C208.732 86.4533 208.485 86.5 208.219 86.5C207.712 86.5 207.392 86.2467 207.259 85.74C207.125 85.2867 207.219 84.88 207.539 84.52C207.925 84.08 208.519 84.0267 209.319 84.36C209.159 84.36 209.019 84.4733 208.899 84.7C208.765 84.94 208.772 85.1333 208.919 85.28C209.185 85.48 209.445 85.5133 209.699 85.38C212.085 84.0867 213.352 83.4267 213.499 83.4ZM209.559 86.16C208.252 87.72 207.812 89.5 208.239 91.5C208.652 93.5 209.792 94.9667 211.659 95.9C213.499 96.82 215.352 96.9 217.219 96.14C218.352 95.6467 219.205 94.8 219.779 93.6C220.312 92.4933 220.532 91.28 220.439 89.96C220.439 89.3067 220.252 88.6 219.879 87.84C219.119 86.2933 217.785 85.2133 215.879 84.6C215.239 84.3867 214.492 84.2867 213.639 84.3C211.945 84.3533 210.585 84.9733 209.559 86.16ZM212.339 103.18C212.325 102.86 212.372 102.54 212.479 102.22C212.705 101.58 213.139 101.267 213.779 101.28C213.992 101.267 214.205 101.327 214.419 101.46C214.845 101.74 215.059 102.253 215.059 103C215.085 103.293 215.052 103.587 214.959 103.88C214.759 104.48 214.352 104.78 213.739 104.78C213.499 104.807 213.259 104.76 213.019 104.64C212.552 104.4 212.325 103.913 212.339 103.18ZM233.149 83.42C233.256 84.14 232.969 84.8133 232.289 85.44C231.596 86.08 231.222 86.5667 231.169 86.9C231.089 86.5267 230.876 86.1467 230.529 85.76C229.836 85.0133 228.849 84.64 227.569 84.64C227.076 84.6267 226.522 84.7333 225.909 84.96C224.669 85.4267 223.729 86.2867 223.089 87.54C222.836 88.06 222.662 88.72 222.569 89.52C222.396 91.12 222.729 92.6133 223.569 94C224.369 95.3333 225.502 96.1667 226.969 96.5C228.342 96.8333 229.769 96.6667 231.249 96C231.689 95.8267 232.136 95.54 232.589 95.14C233.496 94.34 234.009 93.3667 234.129 92.22C234.222 92.1933 234.269 92.1933 234.269 92.22C234.296 93.3267 234.056 94.4333 233.549 95.54C232.549 97.7533 230.736 98.86 228.109 98.86C227.402 98.9267 226.629 98.7667 225.789 98.38C224.122 97.6333 222.976 96.16 222.349 93.96C222.136 93.2133 222.036 92.3133 222.049 91.26C222.076 89.18 222.649 87.4067 223.769 85.94C225.076 84.18 226.829 83.3 229.029 83.3C229.709 83.2467 230.576 83.38 231.629 83.7C232.322 83.94 232.829 83.8467 233.149 83.42Z" fill="white"/>
<path d="M182.609 24.52L181.729 25.08C181.062 25.5067 180.396 25.88 179.729 26.2C177.489 27.2933 175.116 27.9333 172.609 28.12C172.796 27.56 172.729 26.9733 172.409 26.36C172.009 25.5867 171.316 25.2 170.329 25.2H167.569V61.76H170.209V62.44H159.169V61.76C161.702 61.8133 162.969 60.56 162.969 58V25.2H159.889C157.862 25.2 156.036 26.1733 154.409 28.12C153.582 29.1067 152.969 30.0933 152.569 31.08C152.196 31.9333 152.089 32.6933 152.249 33.36C151.636 33.2 151.222 32.6 151.009 31.56C150.662 30.0133 150.916 27.7867 151.769 24.88C152.062 23.9467 152.209 23.08 152.209 22.28C152.422 22.8933 152.716 23.3333 153.089 23.6C153.969 24.2133 155.316 24.52 157.129 24.52H182.609ZM171.552 20.4C172.699 20.2133 173.632 19.7467 174.352 19C175.232 18.12 175.939 17.56 176.472 17.32C178.312 18.04 179.219 19.5733 179.192 21.92L178.992 38.72C179.259 37.6267 179.779 36.5067 180.552 35.36C182.046 33.0933 184.006 31.8667 186.432 31.68C187.632 31.52 188.819 31.6133 189.992 31.96C192.366 32.68 193.552 34.3467 193.552 36.96V59.4C193.499 60.7333 193.886 61.92 194.712 62.96C193.459 62.7733 192.779 62.2933 192.672 61.52C192.326 63.3867 190.459 65.08 187.072 66.6C188.859 64.84 189.752 62.4933 189.752 59.56V38.24C189.859 37.2 189.739 36.2 189.392 35.24C188.726 33.32 187.326 32.5333 185.192 32.88C184.232 33.0133 183.259 33.5467 182.272 34.48C180.272 36.2933 179.179 39.1467 178.992 43.04V61.8H181.992V62.4H172.152V61.8H173.192C173.539 61.8267 173.899 61.72 174.272 61.48C174.966 61 175.312 60.12 175.312 58.84L175.352 23.68C175.459 23.1467 175.379 22.64 175.112 22.16C174.579 21.2 173.392 20.8 171.552 20.96V20.4ZM205.803 40.84C205.217 43.4 204.07 45.0267 202.363 45.72C201.51 46.04 200.723 46.12 200.003 45.96C198.457 45.64 197.443 44.7467 196.963 43.28C196.723 42.56 196.643 41.8667 196.723 41.2C196.883 39.0667 198.017 37.1333 200.123 35.4C199.163 35.56 198.51 35.3467 198.163 34.76C197.977 34.44 197.897 34.12 197.923 33.8C198.003 32.5733 198.577 31.8267 199.643 31.56L199.803 31.76C199.323 32.4 199.35 32.9867 199.883 33.52C200.39 34.0267 200.977 34.1333 201.643 33.84C204.15 32.6667 206.23 32.0267 207.883 31.92C209.937 31.76 211.697 32.0933 213.163 32.92C214.87 33.88 215.67 35.28 215.563 37.12V59.52C215.563 61.04 216.03 61.8 216.963 61.8H218.363V62.4H211.683V59.96C209.737 62.0133 207.337 63.04 204.483 63.04C201.577 63.04 199.563 62.1467 198.443 60.36C197.857 59.48 197.577 58.6 197.603 57.72C197.63 54.0933 199.35 51.76 202.763 50.72C205.937 49.7333 208.91 50.1733 211.683 52.04V37.8C211.683 34.8933 210.51 33.1867 208.163 32.68C206.297 32.2267 204.377 32.72 202.403 34.16C200.403 35.6 199.403 37.2667 199.403 39.16C199.403 40.6267 199.883 41.6933 200.843 42.36C201.323 42.68 201.803 42.8667 202.283 42.92C203.91 43.0267 204.963 42.3333 205.443 40.84H205.803ZM201.643 56.52C201.67 57.16 201.777 57.7067 201.963 58.16C202.683 60.2133 203.937 61.4 205.723 61.72C206.63 61.88 207.457 61.8267 208.203 61.56C209.617 61.1867 210.777 60.48 211.683 59.44V52.52C210.19 51.48 208.63 50.9333 207.003 50.88C205.43 50.8533 204.11 51.4 203.043 52.52C202.03 53.6133 201.563 54.9467 201.643 56.52ZM215.283 30.92C215.23 30.8133 214.11 30.2133 211.923 29.12C209.79 28.0533 208.723 27.4933 208.723 27.44C208.723 27.3333 206.377 28.52 201.683 31L208.723 22.68L215.283 30.92ZM205.403 18.28C205.057 17.7467 205.283 17.1867 206.083 16.6C207.097 15.88 207.643 15.2 207.723 14.56C211.03 18.5333 213.417 20.2933 214.883 19.84C215.603 19.9733 215.63 20.1333 214.963 20.32C214.27 20.5333 213.323 20.64 212.123 20.64C208.683 20.6667 206.443 19.88 205.403 18.28ZM231.797 61.8V62.4H221.957V61.8H222.997C223.344 61.8267 223.704 61.72 224.077 61.48C224.77 61 225.117 60.12 225.117 58.84V38.52C225.17 37.88 225.037 37.2533 224.717 36.64C224.104 35.3867 222.93 34.76 221.197 34.76V34.36C221.997 34.36 222.877 33.8933 223.837 32.96C224.93 31.8667 225.757 31.2267 226.317 31.04C227.917 31.76 228.73 33.2933 228.757 35.64L228.797 38.08C229.064 36.9867 229.584 35.88 230.357 34.76C231.85 32.52 233.81 31.3067 236.237 31.12C237.437 30.9333 238.637 31.0133 239.837 31.36C242.237 32.0267 243.437 33.6667 243.437 36.28V59.52C243.384 60.8533 243.77 62.04 244.597 63.08C243.344 62.8933 242.664 62.4133 242.557 61.64C242.37 63.5067 240.584 65.2 237.197 66.72C238.824 64.96 239.637 62.6133 239.637 59.68V37.6C239.744 36.56 239.637 35.56 239.317 34.6C238.65 32.68 237.21 31.8933 234.997 32.24C234.037 32.3733 233.064 32.9067 232.077 33.84C230.077 35.6533 228.984 38.5067 228.797 42.4V61.8H231.797Z" fill="white"/>
<path d="M65 27H28L65 10V27Z" fill="#EE9561"/>
<path d="M75 27H112L75 10V27Z" fill="#EE9561"/>
<path d="M46.2224 75.7032L64.7224 107.746L31.5 84.2032L46.2224 75.7032Z" fill="#EE9561"/>
<path d="M41.2224 67.0429L22.7224 35L26.5 75.5429L41.2224 67.0429Z" fill="#EE9561"/>
<path d="M98.5 67.0429L117 35L113.222 75.5429L98.5 67.0429Z" fill="#EE9561"/>
<path d="M93.5 75.7032L75 107.746L108.222 84.2032L93.5 75.7032Z" fill="#EE9561"/>
<path fill-rule="evenodd" clip-rule="evenodd" d="M51.8135 72.5L70 104L88.1865 72.5H51.8135ZM72.3333 93H65V89.4H72.3333V85.8H68.6667V82.2H72.3333V78.6H65V75H72.3333C73.3417 75 74.2052 75.3522 74.9238 76.0566C75.6413 76.7622 76 77.61 76 78.6V81.3C76 82.08 75.7403 82.725 75.2208 83.235C74.7014 83.745 74.0445 84 73.25 84C74.0445 84 74.7014 84.255 75.2208 84.765C75.7403 85.275 76 85.92 76 86.7V89.4C76 90.39 75.6413 91.2378 74.9238 91.9434C74.2052 92.6478 73.3417 93 72.3333 93Z" fill="#EE9561"/>
<path fill-rule="evenodd" clip-rule="evenodd" d="M93.6865 64.6866L111.873 33.1866L75.5 33.1866L93.6865 64.6866ZM96.3333 53H92.6667C91.6583 53 90.7954 52.6478 90.078 51.9434C89.3593 51.2378 89 50.39 89 49.4V38.6C89 37.61 89.3593 36.7622 90.078 36.0566C90.7954 35.3522 91.6583 35 92.6667 35H98.1667V38.6H92.6667V42.2H96.3333C97.3417 42.2 98.2052 42.5522 98.9238 43.2566C99.6413 43.9622 100 44.81 100 45.8V49.4C100 50.39 99.6413 51.2378 98.9238 51.9434C98.2052 52.6478 97.3417 53 96.3333 53ZM96.3333 45.8H92.6667V49.4H96.3333V45.8Z" fill="#EE9561"/>
<path fill-rule="evenodd" clip-rule="evenodd" d="M46.6865 64.6866L64.8731 33.1866L28.5 33.1866L46.6865 64.6866ZM48.3333 53H44.6667C43.6583 53 42.7954 52.6478 42.078 51.9434C41.3593 51.2378 41 50.39 41 49.4V46.7C41 45.95 41.2677 45.3128 41.803 44.7884C42.3371 44.2628 42.9861 44 43.75 44C42.9861 44 42.3371 43.7372 41.803 43.2116C41.2677 42.6872 41 42.05 41 41.3V38.6C41 37.61 41.3593 36.7622 42.078 36.0566C42.7954 35.3522 43.6583 35 44.6667 35H48.3333C49.3417 35 50.2052 35.3522 50.9238 36.0566C51.6413 36.7622 52 37.61 52 38.6V41.3C52 42.05 51.7323 42.6872 51.197 43.2116C50.6629 43.7372 50.0139 44 49.25 44C50.0139 44 50.6629 44.2628 51.197 44.7884C51.7323 45.3128 52 45.95 52 46.7V49.4C52 50.39 51.6413 51.2378 50.9238 51.9434C50.2052 52.6478 49.3417 53 48.3333 53ZM48.3333 38.6H44.6667V42.2H48.3333V38.6ZM44.6667 45.8V49.4H48.3333V45.8H44.6667Z" fill="#EE9561"/>
<path fill-rule="evenodd" clip-rule="evenodd" d="M88.1865 67.5L70 36L51.8135 67.5H88.1865ZM74 64H70V49.6H66V46H74V64Z" fill="#EE9561"/>
</svg>
