<svg width="270" height="116" viewBox="0 0 270 116" fill="none" xmlns="http://www.w3.org/2000/svg">
<rect x="1" y="1" width="268" height="114" rx="13" fill="#181818" stroke="#353635" stroke-width="2"/>
<path d="M157.06 90.8C154.9 90.36 153.227 89.1733 152.04 87.24C150.96 85.48 150.447 83.42 150.5 81.06C150.553 78.7267 151.147 76.6733 152.28 74.9C153.52 72.98 155.173 71.8 157.24 71.36C158.253 71.16 159.613 71.1867 161.32 71.44C162.64 71.6533 163.5 71.56 163.9 71.16C163.98 71.7467 163.887 72.1867 163.62 72.48C163.487 72.6267 163.34 72.72 163.18 72.76C163.98 73.2667 164.327 74.0533 164.22 75.12C164.167 75.6533 164.027 76.14 163.8 76.58C163.547 75.1667 162.727 74.0733 161.34 73.3C160.087 72.5933 158.687 72.2867 157.14 72.38C154.98 72.5933 153.453 73.8867 152.56 76.26C151.72 78.46 151.673 80.62 152.42 82.74C153.127 84.7 154.18 86.1867 155.58 87.2C156.833 88.12 158.213 88.5533 159.72 88.5C161.173 88.4467 162.46 87.9533 163.58 87.02C164.753 86.0467 165.507 84.7667 165.84 83.18C165.893 85.0467 165.573 86.6067 164.88 87.86C163.907 89.6733 162.313 90.7067 160.1 90.96C158.993 91.08 157.98 91.0267 157.06 90.8ZM173.07 70.32C173.07 70.28 173.41 70.5133 174.09 71.02C174.77 71.54 175.124 71.7933 175.15 71.78C175.217 71.7133 175.177 71.82 175.03 72.1C174.87 72.3933 174.65 72.6733 174.37 72.94C173.45 73.82 172.077 74.4267 170.25 74.76L170.63 74.44C170.964 74.16 171.264 73.8667 171.53 73.56C172.41 72.5467 172.924 71.4667 173.07 70.32ZM177.71 90.7H174.43V89.48C174.217 89.6533 173.884 89.9067 173.43 90.24C172.484 90.8533 171.597 91.1133 170.77 91.02C169.384 91.06 168.397 90.6267 167.81 89.72C167.504 89.2667 167.344 88.8133 167.33 88.36C167.264 87.2133 167.61 86.3067 168.37 85.64C168.757 85.3067 169.144 85.0867 169.53 84.98C170.584 84.5667 171.71 84.5333 172.91 84.88C173.51 85.0533 174.004 85.2667 174.39 85.52V78.4C174.39 77.2133 173.964 76.42 173.11 76.02C172.697 75.82 172.277 75.74 171.85 75.78C170.37 76.0067 169.324 76.6267 168.71 77.64C168.404 78.1467 168.244 78.6267 168.23 79.08C168.23 79.8133 168.47 80.3467 168.95 80.68C169.19 80.84 169.43 80.9333 169.67 80.96C170.484 81.0133 171.01 80.6667 171.25 79.92C171.264 79.88 171.297 79.86 171.35 79.86C171.404 79.86 171.43 79.88 171.43 79.92C171.137 81.2 170.564 82.0133 169.71 82.36C169.284 82.52 168.89 82.56 168.53 82.48C167.757 82.32 167.25 81.8733 167.01 81.14C166.89 80.78 166.85 80.4333 166.89 80.1C166.97 79.0333 167.537 78.0667 168.59 77.2C168.084 77.2533 167.75 77.1333 167.59 76.84C167.51 76.6933 167.477 76.5467 167.49 76.4C167.53 75.7867 167.817 75.4133 168.35 75.28L168.43 75.38C168.097 75.7667 168.124 76.0733 168.51 76.3C168.87 76.6333 169.404 76.5467 170.11 76.04C171.19 75.5067 172.404 75.3133 173.75 75.46C174.884 75.6067 175.65 76.0867 176.05 76.9C176.25 77.3 176.337 77.6867 176.31 78.06V89.26C176.31 90.02 176.544 90.4 177.01 90.4H177.71V90.7ZM170.95 85.08C169.99 85.56 169.464 86.2867 169.37 87.26C169.317 87.7533 169.364 88.1933 169.51 88.58C169.87 89.6067 170.497 90.2 171.39 90.36C171.844 90.44 172.257 90.4133 172.63 90.28C173.337 90.0933 173.917 89.74 174.37 89.22V85.76C173.17 84.9067 172.03 84.68 170.95 85.08ZM191.928 90.4V90.7H187.008V90.4H187.528C187.701 90.4133 187.881 90.36 188.068 90.24C188.414 90 188.588 89.56 188.588 88.92V78.76C188.614 78.44 188.548 78.1267 188.388 77.82C188.081 77.1933 187.494 76.88 186.628 76.88V76.68C187.028 76.68 187.468 76.4467 187.948 75.98C188.494 75.4333 188.908 75.1133 189.188 75.02C189.988 75.38 190.394 76.1467 190.408 77.32L190.428 78.54C190.561 77.9933 190.821 77.44 191.208 76.88C191.954 75.76 192.934 75.1533 194.148 75.06C194.748 74.9667 195.348 75.0067 195.948 75.18C197.148 75.5133 197.748 76.3333 197.748 77.64V89.26C197.721 89.9267 197.914 90.52 198.328 91.04C197.701 90.9467 197.361 90.7067 197.308 90.32C197.214 91.2533 196.321 92.1 194.628 92.86C195.441 91.98 195.848 90.8067 195.848 89.34V78.3C195.901 77.78 195.848 77.28 195.688 76.8C195.354 75.84 194.634 75.4467 193.528 75.62C193.048 75.6867 192.561 75.9533 192.068 76.42C191.068 77.3267 190.521 78.7533 190.428 80.7V90.4H191.928ZM198.27 69.7C198.844 69.6067 199.31 69.3733 199.67 69C200.11 68.56 200.464 68.28 200.73 68.16C201.65 68.52 202.104 69.2867 202.09 70.46L201.99 78.86C202.124 78.3133 202.384 77.7533 202.77 77.18C203.517 76.0467 204.497 75.4333 205.71 75.34C206.31 75.26 206.904 75.3067 207.49 75.48C208.677 75.84 209.27 76.6733 209.27 77.98V89.2C209.244 89.8667 209.437 90.46 209.85 90.98C209.224 90.8867 208.884 90.6467 208.83 90.26C208.657 91.1933 207.724 92.04 206.03 92.8C206.924 91.92 207.37 90.7467 207.37 89.28V78.62C207.424 78.1 207.364 77.6 207.19 77.12C206.857 76.16 206.157 75.7667 205.09 75.94C204.61 76.0067 204.124 76.2733 203.63 76.74C202.63 77.6467 202.084 79.0733 201.99 81.02V90.4H203.49V90.7H198.57V90.4H199.09C199.264 90.4133 199.444 90.36 199.63 90.24C199.977 90 200.15 89.56 200.15 88.92L200.17 71.34C200.224 71.0733 200.184 70.82 200.05 70.58C199.784 70.1 199.19 69.9 198.27 69.98V69.7ZM215.396 79.92C215.102 81.2 214.529 82.0133 213.676 82.36C213.249 82.52 212.856 82.56 212.496 82.48C211.722 82.32 211.216 81.8733 210.976 81.14C210.856 80.78 210.816 80.4333 210.856 80.1C210.936 79.0333 211.502 78.0667 212.556 77.2C212.076 77.28 211.749 77.1733 211.576 76.88C211.482 76.72 211.442 76.56 211.456 76.4C211.496 75.7867 211.782 75.4133 212.316 75.28L212.396 75.38C212.156 75.7 212.169 75.9933 212.436 76.26C212.689 76.5133 212.982 76.5667 213.316 76.42C214.569 75.8333 215.609 75.5133 216.436 75.46C217.462 75.38 218.342 75.5467 219.076 75.96C219.929 76.44 220.329 77.14 220.276 78.06V89.26C220.276 90.02 220.509 90.4 220.976 90.4H221.676V90.7H218.336V89.48C217.362 90.5067 216.162 91.02 214.736 91.02C213.282 91.02 212.276 90.5733 211.716 89.68C211.422 89.24 211.282 88.8 211.296 88.36C211.309 86.5467 212.169 85.38 213.876 84.86C215.462 84.3667 216.949 84.5867 218.336 85.52V78.4C218.336 76.9467 217.749 76.0933 216.576 75.84C215.642 75.6133 214.682 75.86 213.696 76.58C212.696 77.3 212.196 78.1333 212.196 79.08C212.196 79.8133 212.436 80.3467 212.916 80.68C213.156 80.84 213.396 80.9333 213.636 80.96C214.449 81.0133 214.976 80.6667 215.216 79.92H215.396ZM213.316 87.76C213.329 88.08 213.382 88.3533 213.476 88.58C213.836 89.6067 214.462 90.2 215.356 90.36C215.809 90.44 216.222 90.4133 216.596 90.28C217.302 90.0933 217.882 89.74 218.336 89.22V85.76C217.589 85.24 216.809 84.9667 215.996 84.94C215.209 84.9267 214.549 85.2 214.016 85.76C213.509 86.3067 213.276 86.9733 213.316 87.76ZM220.136 74.96C220.109 74.9067 219.549 74.6067 218.456 74.06C217.389 73.5267 216.856 73.2467 216.856 73.22C216.856 73.1667 215.682 73.76 213.336 75L216.856 70.84L220.136 74.96ZM228.393 90.4V90.7H223.473V90.4H223.993C224.166 90.4133 224.346 90.36 224.533 90.24C224.879 90 225.053 89.56 225.053 88.92V78.76C225.079 78.44 225.013 78.1267 224.853 77.82C224.546 77.1933 223.959 76.88 223.093 76.88V76.68C223.493 76.68 223.933 76.4467 224.413 75.98C224.959 75.4333 225.373 75.1133 225.653 75.02C226.453 75.38 226.859 76.1467 226.873 77.32L226.893 78.54C227.026 77.9933 227.286 77.44 227.673 76.88C228.419 75.76 229.399 75.1533 230.613 75.06C231.213 74.9667 231.813 75.0067 232.413 75.18C233.613 75.5133 234.213 76.3333 234.213 77.64V89.26C234.186 89.9267 234.379 90.52 234.793 91.04C234.166 90.9467 233.826 90.7067 233.773 90.32C233.679 91.2533 232.786 92.1 231.093 92.86C231.906 91.98 232.313 90.8067 232.313 89.34V78.3C232.366 77.78 232.313 77.28 232.153 76.8C231.819 75.84 231.099 75.4467 229.993 75.62C229.513 75.6867 229.026 75.9533 228.533 76.42C227.533 77.3267 226.986 78.7533 226.893 80.7V90.4H228.393Z" fill="white"/>
<path d="M170.48 25.52L169.6 26.08C168.933 26.5067 168.267 26.88 167.6 27.2C165.36 28.2933 162.987 28.9333 160.48 29.12C160.667 28.56 160.6 27.9733 160.28 27.36C159.88 26.5867 159.187 26.2 158.2 26.2H155.44V62.76H158.08V63.44H147.04V62.76C149.573 62.8133 150.84 61.56 150.84 59V26.2H147.76C145.733 26.2 143.907 27.1733 142.28 29.12C141.453 30.1067 140.84 31.0933 140.44 32.08C140.067 32.9333 139.96 33.6933 140.12 34.36C139.507 34.2 139.093 33.6 138.88 32.56C138.533 31.0133 138.787 28.7867 139.64 25.88C139.933 24.9467 140.08 24.08 140.08 23.28C140.293 23.8933 140.587 24.3333 140.96 24.6C141.84 25.2133 143.187 25.52 145 25.52H170.48ZM190.842 35.36V62.8H193.642V63.4H190.802C189.122 63.4 187.896 63.9333 187.122 65V57.76C186.376 60.0267 185.162 61.7733 183.482 63C181.669 64.3067 179.589 64.76 177.242 64.36C175.296 64.12 174.002 63.0133 173.362 61.04C173.042 60.0533 172.922 59.0933 173.002 58.16V40.52C173.002 38.28 172.469 36.8933 171.402 36.36C170.869 36.0667 170.336 36.0133 169.802 36.2V35.84C170.122 35.7867 170.709 35.3467 171.562 34.52C172.522 33.5867 173.336 32.96 174.002 32.64C175.816 33.5733 176.722 35.6267 176.722 38.8V55.96C176.536 58.0933 176.896 59.88 177.802 61.32C178.896 63.1067 180.496 63.5467 182.602 62.64C185.082 61.5733 186.589 59.0533 187.122 55.08V36C187.229 34.8 186.642 34.2 185.362 34.2H184.322V33.6H189.402C190.656 31.4133 190.736 29.84 189.642 28.88C188.976 28.2933 188.109 28.0133 187.042 28.04L186.922 27.24C192.202 25.8 194.909 25.2667 195.042 25.64C195.709 27.4 195.442 29.3333 194.242 31.44C193.362 32.9867 192.229 34.2933 190.842 35.36ZM179.682 20.96C178.802 20.3733 179.296 19.6133 181.162 18.68C181.722 18.3867 182.402 18.08 183.202 17.76C183.922 17.4933 184.269 17.3733 184.242 17.4C184.402 17.2133 184.549 17.48 184.682 18.2C184.816 19 184.829 19.88 184.722 20.84C184.376 23.72 183.176 25.84 181.122 27.2C180.669 27.4933 180.576 27.4267 180.842 27C181.589 25.88 181.882 24.7333 181.722 23.56C181.802 23.56 181.709 23.28 181.442 22.72C181.096 22.08 180.509 21.4933 179.682 20.96ZM225.675 36.32C224.955 35.6 224.781 34.6667 225.155 33.52C225.608 32.1867 226.795 31.4533 228.715 31.32C230.315 31.24 231.421 32.1467 232.035 34.04C232.301 35.0267 232.301 35.9867 232.035 36.92C232.061 36.68 232.421 36.56 233.115 36.56C234.075 36.5867 234.555 37.16 234.555 38.28C234.608 39.2133 234.221 39.9067 233.395 40.36L233.235 40.04C233.475 39.72 233.435 39.4 233.115 39.08C232.795 38.6267 232.235 38.7467 231.435 39.44C230.661 40.1867 229.941 41.5067 229.275 43.4L221.635 64.28L212.635 33.64H210.075V33H220.075V33.64H219.195C218.261 33.64 217.728 34.08 217.595 34.96C217.515 35.3867 217.528 35.8267 217.635 36.28L223.395 57.08L227.595 45.56C229.701 39.9867 229.901 36.4267 228.195 34.88C227.501 34.24 226.835 34.24 226.195 34.88C225.875 35.2267 225.835 35.6933 226.075 36.28L225.675 36.32ZM243.16 63.4H233.4V62.8H234.6C235.88 62.72 236.52 61.76 236.52 59.92V39.48C236.6 38.8667 236.507 38.24 236.24 37.6C235.707 36.3733 234.56 35.76 232.8 35.76V35.32C233.494 35.3733 234.48 34.76 235.76 33.48C236.187 33.0267 236.88 32.52 237.84 31.96C238.96 32.7067 239.707 34.2133 240.08 36.48C240.16 36.56 240.2 37.6933 240.2 39.88V62.8H243.16V63.4ZM236.4 24.76C237.467 23.64 238.547 23.48 239.64 24.28C239.96 24.52 240.187 24.84 240.32 25.24C240.587 26.0933 240.267 26.9733 239.36 27.88C238.694 28.5733 237.92 28.8533 237.04 28.72C235.92 28.5333 235.414 27.8267 235.52 26.6C235.6 25.88 235.894 25.2667 236.4 24.76Z" fill="white"/>
<path d="M70 56C64.9125 56 60.5573 54.1885 56.9344 50.5656C53.3115 46.9427 51.5 42.5875 51.5 37.5C51.5 32.4125 53.3115 28.0573 56.9344 24.4344C60.5573 20.8115 64.9125 19 70 19C75.0875 19 79.4427 20.8115 83.0656 24.4344C86.6885 28.0573 88.5 32.4125 88.5 37.5C88.5 42.5875 86.6885 46.9427 83.0656 50.5656C79.4427 54.1885 75.0875 56 70 56ZM33 93V80.05C33 77.4292 33.6753 75.0195 35.0258 72.8211C36.3732 70.6258 38.1646 68.95 40.4 67.7938C45.1792 65.4042 50.0354 63.6112 54.9688 62.4149C59.9021 61.2216 64.9125 60.625 70 60.625C75.0875 60.625 80.0979 61.2216 85.0312 62.4149C89.9646 63.6112 94.8208 65.4042 99.6 67.7938C101.835 68.95 103.627 70.6258 104.974 72.8211C106.325 75.0195 107 77.4292 107 80.05V93H33ZM42.25 83.75H97.75V80.05C97.75 79.2021 97.5388 78.4313 97.1164 77.7375C96.6909 77.0438 96.1313 76.5042 95.4375 76.1188C91.275 74.0375 87.074 72.4758 82.8344 71.4336C78.5948 70.3945 74.3167 69.875 70 69.875C65.6833 69.875 61.4052 70.3945 57.1656 71.4336C52.926 72.4758 48.725 74.0375 44.5625 76.1188C43.8687 76.5042 43.3107 77.0438 42.8883 77.7375C42.4628 78.4313 42.25 79.2021 42.25 80.05V83.75ZM70 46.75C72.5438 46.75 74.7221 45.8435 76.5351 44.0305C78.345 42.2206 79.25 40.0438 79.25 37.5C79.25 34.9562 78.345 32.7794 76.5351 30.9695C74.7221 29.1565 72.5438 28.25 70 28.25C67.4562 28.25 65.2794 29.1565 63.4695 30.9695C61.6565 32.7794 60.75 34.9562 60.75 37.5C60.75 40.0438 61.6565 42.2206 63.4695 44.0305C65.2794 45.8435 67.4562 46.75 70 46.75Z" fill="#EE9561"/>
</svg>
