<svg width="270" height="116" viewBox="0 0 270 116" fill="none" xmlns="http://www.w3.org/2000/svg">
<rect x="1" y="1" width="268" height="114" rx="13" fill="#181818" stroke="#353635" stroke-width="2"/>
<path d="M155.06 90.8C152.9 90.36 151.227 89.1733 150.04 87.24C148.96 85.48 148.447 83.42 148.5 81.06C148.553 78.7267 149.147 76.6733 150.28 74.9C151.52 72.98 153.173 71.8 155.24 71.36C156.253 71.16 157.613 71.1867 159.32 71.44C160.64 71.6533 161.5 71.56 161.9 71.16C161.98 71.7467 161.887 72.1867 161.62 72.48C161.487 72.6267 161.34 72.72 161.18 72.76C161.98 73.2667 162.327 74.0533 162.22 75.12C162.167 75.6533 162.027 76.14 161.8 76.58C161.547 75.1667 160.727 74.0733 159.34 73.3C158.087 72.5933 156.687 72.2867 155.14 72.38C152.98 72.5933 151.453 73.8867 150.56 76.26C149.72 78.46 149.673 80.62 150.42 82.74C151.127 84.7 152.18 86.1867 153.58 87.2C154.833 88.12 156.213 88.5533 157.72 88.5C159.173 88.4467 160.46 87.9533 161.58 87.02C162.753 86.0467 163.507 84.7667 163.84 83.18C163.893 85.0467 163.573 86.6067 162.88 87.86C161.907 89.6733 160.313 90.7067 158.1 90.96C156.993 91.08 155.98 91.0267 155.06 90.8ZM169.45 79.92C169.157 81.2 168.584 82.0133 167.73 82.36C167.304 82.52 166.91 82.56 166.55 82.48C165.777 82.32 165.27 81.8733 165.03 81.14C164.91 80.78 164.87 80.4333 164.91 80.1C164.99 79.0333 165.557 78.0667 166.61 77.2C166.13 77.28 165.804 77.1733 165.63 76.88C165.537 76.72 165.497 76.56 165.51 76.4C165.55 75.7867 165.837 75.4133 166.37 75.28L166.45 75.38C166.21 75.7 166.224 75.9933 166.49 76.26C166.744 76.5133 167.037 76.5667 167.37 76.42C168.624 75.8333 169.664 75.5133 170.49 75.46C171.517 75.38 172.397 75.5467 173.13 75.96C173.984 76.44 174.384 77.14 174.33 78.06V89.26C174.33 90.02 174.564 90.4 175.03 90.4H175.73V90.7H172.39V89.48C171.417 90.5067 170.217 91.02 168.79 91.02C167.337 91.02 166.33 90.5733 165.77 89.68C165.477 89.24 165.337 88.8 165.35 88.36C165.364 86.5467 166.224 85.38 167.93 84.86C169.517 84.3667 171.004 84.5867 172.39 85.52V78.4C172.39 76.9467 171.804 76.0933 170.63 75.84C169.697 75.6133 168.737 75.86 167.75 76.58C166.75 77.3 166.25 78.1333 166.25 79.08C166.25 79.8133 166.49 80.3467 166.97 80.68C167.21 80.84 167.45 80.9333 167.69 80.96C168.504 81.0133 169.03 80.6667 169.27 79.92H169.45ZM167.37 87.76C167.384 88.08 167.437 88.3533 167.53 88.58C167.89 89.6067 168.517 90.2 169.41 90.36C169.864 90.44 170.277 90.4133 170.65 90.28C171.357 90.0933 171.937 89.74 172.39 89.22V85.76C171.644 85.24 170.864 84.9667 170.05 84.94C169.264 84.9267 168.604 85.2 168.07 85.76C167.564 86.3067 167.33 86.9733 167.37 87.76ZM167.37 70.08C167.397 70.1333 167.957 70.4333 169.05 70.98C170.117 71.5133 170.65 71.7933 170.65 71.82C170.65 71.8733 171.824 71.28 174.17 70.04L170.65 74.2L167.25 70.02L167.37 70.08ZM168.31 95.42C168.297 95.1 168.344 94.78 168.45 94.46C168.677 93.82 169.11 93.5067 169.75 93.52C169.964 93.5067 170.177 93.5667 170.39 93.7C170.817 93.98 171.03 94.4933 171.03 95.24C171.057 95.5333 171.024 95.8267 170.93 96.12C170.73 96.72 170.324 97.02 169.71 97.02C169.47 97.0467 169.23 97 168.99 96.88C168.524 96.64 168.297 96.1533 168.31 95.42ZM177.507 75.48C177.734 75.5067 177.967 75.6667 178.207 75.96C178.687 76.5733 178.947 77.58 178.987 78.98L178.967 80.72H179.207C179.301 80.0667 179.521 79.3667 179.867 78.62C180.561 77.1267 181.561 76.1667 182.867 75.74C183.574 75.46 184.387 75.3667 185.307 75.46C187.161 75.62 188.641 76.5867 189.747 78.36C190.281 79.28 190.607 80.4067 190.727 81.74C190.941 84.42 189.974 86.7867 187.827 88.84C187.254 89.3733 186.461 89.8067 185.447 90.14C183.421 90.7933 181.307 90.6267 179.107 89.64V94.8H180.707V95.1H175.727V94.78H176.167C176.354 94.7933 176.547 94.7467 176.747 94.64C177.121 94.4133 177.307 93.9733 177.307 93.32V79.08C177.281 78.36 177.147 77.8867 176.907 77.66C176.627 77.3667 176.047 77.2333 175.167 77.26C175.141 77.1133 175.141 77.0667 175.167 77.12C175.661 76.9867 176.027 76.7933 176.267 76.54C176.627 76.06 177.041 75.7067 177.507 75.48ZM187.227 89C188.774 87.88 189.561 86.2467 189.587 84.1C189.587 83.0333 189.441 82.08 189.147 81.24C188.201 79.04 186.761 77.7533 184.827 77.38C183.867 77.2067 183.001 77.2467 182.227 77.5C180.921 77.8867 180.007 78.9333 179.487 80.64C179.234 81.4933 179.107 82.3067 179.107 83.08V88.14C180.721 89.8333 182.561 90.4867 184.627 90.1C185.654 89.9 186.521 89.5333 187.227 89ZM210.343 77.08C209.596 76.6533 208.716 76.36 207.703 76.2C204.93 75.7333 202.903 76.46 201.623 78.38C200.783 79.6467 200.356 81.08 200.343 82.68C200.316 84.3333 200.73 85.7333 201.583 86.88C202.423 88 203.596 88.6733 205.103 88.9C206.583 89.1267 207.89 88.8667 209.023 88.12C210.25 87.32 210.976 86.1467 211.203 84.6C211.176 83.16 211.176 80.9933 211.203 78.1C211.336 77.82 211.05 77.48 210.343 77.08ZM213.303 73.28V88.86C213.303 89.1 213.356 89.3467 213.463 89.6C213.703 90.0933 214.13 90.36 214.743 90.4H215.163V90.7H211.203V85.96C211.19 86.0133 211.103 86.2733 210.943 86.74C210.703 87.3933 210.41 87.9867 210.063 88.52C208.93 90.2267 207.343 91.0867 205.303 91.1C204.583 91.1533 203.803 91 202.963 90.64C201.283 89.92 200.136 88.5333 199.523 86.48C199.27 85.7333 199.15 84.8267 199.163 83.76C199.19 81.6267 199.883 79.7467 201.243 78.12C201.856 77.32 202.73 76.66 203.863 76.14C206.143 75.0867 208.59 75.2667 211.203 76.68V73.28H207.543L208.523 71.8H211.203V70.78C211.123 70.2067 210.79 69.8533 210.203 69.72C209.643 69.5867 209.363 69.56 209.363 69.64V69.44C209.99 69.44 210.503 69.2533 210.903 68.88C211.37 68.44 211.723 68.1867 211.963 68.12C212.203 68.2 212.436 68.38 212.663 68.66C213.13 69.22 213.343 69.9867 213.303 70.96V71.8H216.463L215.483 73.28H213.303ZM226.111 75.12C226.084 75.0667 225.531 74.7667 224.451 74.22C223.371 73.6867 222.831 73.4067 222.831 73.38C222.831 73.3267 221.657 73.92 219.311 75.16L222.831 71L226.231 75.18L226.111 75.12ZM218.551 77.58C218.151 78.0067 217.791 78.0333 217.471 77.66C217.271 77.38 217.284 77.1533 217.511 76.98C217.617 76.8867 217.744 76.8267 217.891 76.8C217.197 76.5733 216.651 76.5733 216.251 76.8C215.757 77.1067 215.591 77.5133 215.751 78.02C215.871 78.5267 216.217 78.78 216.791 78.78C217.071 78.78 217.337 78.7333 217.591 78.64C216.244 80.3333 215.631 82.14 215.751 84.06C215.764 86.8333 216.684 88.82 218.511 90.02C219.431 90.62 220.351 90.9467 221.271 91C224.111 91.1733 226.237 90.2133 227.651 88.12C228.371 87.0667 228.797 86 228.931 84.92C229.477 81.9067 229.084 79.5133 227.751 77.74C227.097 76.86 226.384 76.28 225.611 76C223.811 75.24 222.097 75.26 220.471 76.06C219.937 76.3133 219.464 76.6333 219.051 77.02C218.717 77.3267 218.551 77.5133 218.551 77.58ZM218.051 78.44C219.091 77.2267 220.457 76.6 222.151 76.56C222.991 76.5467 223.731 76.6533 224.371 76.88C226.277 77.4933 227.611 78.5733 228.371 80.12C228.744 80.88 228.931 81.5867 228.931 82.24C229.077 84.2133 228.577 85.82 227.431 87.06C226.857 87.6867 226.264 88.1133 225.651 88.34C224.117 88.9533 222.531 88.9867 220.891 88.44C220.077 88.16 219.411 87.82 218.891 87.42C216.944 85.54 216.217 83.48 216.711 81.24C216.964 80.12 217.411 79.1867 218.051 78.44ZM235.541 90.7H230.661V90.4H231.261C231.901 90.36 232.221 89.88 232.221 88.96V78.74C232.261 78.4333 232.214 78.12 232.081 77.8C231.814 77.1867 231.241 76.88 230.361 76.88V76.66C230.708 76.6867 231.201 76.38 231.841 75.74C232.054 75.5133 232.401 75.26 232.881 74.98C233.441 75.3533 233.814 76.1067 234.001 77.24C234.041 77.28 234.061 77.8467 234.061 78.94V90.4H235.541V90.7ZM232.161 71.38C232.694 70.82 233.234 70.74 233.781 71.14C233.941 71.26 234.054 71.42 234.121 71.62C234.254 72.0467 234.094 72.4867 233.641 72.94C233.308 73.2867 232.921 73.4267 232.481 73.36C231.921 73.2667 231.668 72.9133 231.721 72.3C231.761 71.94 231.908 71.6333 232.161 71.38Z" fill="white"/>
<path d="M170.48 25.52L169.6 26.08C168.933 26.5067 168.267 26.88 167.6 27.2C165.36 28.2933 162.987 28.9333 160.48 29.12C160.667 28.56 160.6 27.9733 160.28 27.36C159.88 26.5867 159.187 26.2 158.2 26.2H155.44V62.76H158.08V63.44H147.04V62.76C149.573 62.8133 150.84 61.56 150.84 59V26.2H147.76C145.733 26.2 143.907 27.1733 142.28 29.12C141.453 30.1067 140.84 31.0933 140.44 32.08C140.067 32.9333 139.96 33.6933 140.12 34.36C139.507 34.2 139.093 33.6 138.88 32.56C138.533 31.0133 138.787 28.7867 139.64 25.88C139.933 24.9467 140.08 24.08 140.08 23.28C140.293 23.8933 140.587 24.3333 140.96 24.6C141.84 25.2133 143.187 25.52 145 25.52H170.48ZM190.842 35.36V62.8H193.642V63.4H190.802C189.122 63.4 187.896 63.9333 187.122 65V57.76C186.376 60.0267 185.162 61.7733 183.482 63C181.669 64.3067 179.589 64.76 177.242 64.36C175.296 64.12 174.002 63.0133 173.362 61.04C173.042 60.0533 172.922 59.0933 173.002 58.16V40.52C173.002 38.28 172.469 36.8933 171.402 36.36C170.869 36.0667 170.336 36.0133 169.802 36.2V35.84C170.122 35.7867 170.709 35.3467 171.562 34.52C172.522 33.5867 173.336 32.96 174.002 32.64C175.816 33.5733 176.722 35.6267 176.722 38.8V55.96C176.536 58.0933 176.896 59.88 177.802 61.32C178.896 63.1067 180.496 63.5467 182.602 62.64C185.082 61.5733 186.589 59.0533 187.122 55.08V36C187.229 34.8 186.642 34.2 185.362 34.2H184.322V33.6H189.402C190.656 31.4133 190.736 29.84 189.642 28.88C188.976 28.2933 188.109 28.0133 187.042 28.04L186.922 27.24C192.202 25.8 194.909 25.2667 195.042 25.64C195.709 27.4 195.442 29.3333 194.242 31.44C193.362 32.9867 192.229 34.2933 190.842 35.36ZM179.682 20.96C178.802 20.3733 179.296 19.6133 181.162 18.68C181.722 18.3867 182.402 18.08 183.202 17.76C183.922 17.4933 184.269 17.3733 184.242 17.4C184.402 17.2133 184.549 17.48 184.682 18.2C184.816 19 184.829 19.88 184.722 20.84C184.376 23.72 183.176 25.84 181.122 27.2C180.669 27.4933 180.576 27.4267 180.842 27C181.589 25.88 181.882 24.7333 181.722 23.56C181.802 23.56 181.709 23.28 181.442 22.72C181.096 22.08 180.509 21.4933 179.682 20.96ZM225.675 36.32C224.955 35.6 224.781 34.6667 225.155 33.52C225.608 32.1867 226.795 31.4533 228.715 31.32C230.315 31.24 231.421 32.1467 232.035 34.04C232.301 35.0267 232.301 35.9867 232.035 36.92C232.061 36.68 232.421 36.56 233.115 36.56C234.075 36.5867 234.555 37.16 234.555 38.28C234.608 39.2133 234.221 39.9067 233.395 40.36L233.235 40.04C233.475 39.72 233.435 39.4 233.115 39.08C232.795 38.6267 232.235 38.7467 231.435 39.44C230.661 40.1867 229.941 41.5067 229.275 43.4L221.635 64.28L212.635 33.64H210.075V33H220.075V33.64H219.195C218.261 33.64 217.728 34.08 217.595 34.96C217.515 35.3867 217.528 35.8267 217.635 36.28L223.395 57.08L227.595 45.56C229.701 39.9867 229.901 36.4267 228.195 34.88C227.501 34.24 226.835 34.24 226.195 34.88C225.875 35.2267 225.835 35.6933 226.075 36.28L225.675 36.32ZM243.16 63.4H233.4V62.8H234.6C235.88 62.72 236.52 61.76 236.52 59.92V39.48C236.6 38.8667 236.507 38.24 236.24 37.6C235.707 36.3733 234.56 35.76 232.8 35.76V35.32C233.494 35.3733 234.48 34.76 235.76 33.48C236.187 33.0267 236.88 32.52 237.84 31.96C238.96 32.7067 239.707 34.2133 240.08 36.48C240.16 36.56 240.2 37.6933 240.2 39.88V62.8H243.16V63.4ZM236.4 24.76C237.467 23.64 238.547 23.48 239.64 24.28C239.96 24.52 240.187 24.84 240.32 25.24C240.587 26.0933 240.267 26.9733 239.36 27.88C238.694 28.5733 237.92 28.8533 237.04 28.72C235.92 28.5333 235.414 27.8267 235.52 26.6C235.6 25.88 235.894 25.2667 236.4 24.76Z" fill="white"/>
<path d="M19 95V82.05C19 79.4292 19.6703 77.0195 21.0108 74.8211C22.3483 72.6258 24.1265 70.95 26.3455 69.7938C31.0894 67.4042 35.9098 65.6112 40.8068 64.4149C45.7038 63.2216 50.6773 62.625 55.7273 62.625C60.7773 62.625 65.7508 63.2216 70.6477 64.4149C75.5447 65.6112 80.3651 67.4042 85.1091 69.7938C87.328 70.95 89.1062 72.6258 90.4437 74.8211C91.7843 77.0195 92.4545 79.4292 92.4545 82.05V95H19ZM101.636 95V81.125C101.636 77.7333 100.7 74.4758 98.8267 71.3524C96.9506 68.232 94.2909 65.5542 90.8477 63.3187C94.75 63.7812 98.4227 64.5706 101.866 65.6867C105.309 66.806 108.523 68.175 111.507 69.7938C114.261 71.3354 116.366 73.0497 117.819 74.9367C119.273 76.8268 120 78.8896 120 81.125V95H101.636ZM55.7273 58C50.6773 58 46.3542 56.1885 42.758 52.5656C39.1617 48.9427 37.3636 44.5875 37.3636 39.5C37.3636 34.4125 39.1617 30.0573 42.758 26.4344C46.3542 22.8115 50.6773 21 55.7273 21C60.7773 21 65.1004 22.8115 68.6966 26.4344C72.2928 30.0573 74.0909 34.4125 74.0909 39.5C74.0909 44.5875 72.2928 48.9427 68.6966 52.5656C65.1004 56.1885 60.7773 58 55.7273 58ZM101.636 39.5C101.636 44.5875 99.8383 48.9427 96.242 52.5656C92.6458 56.1885 88.3227 58 83.2727 58C82.4311 58 81.3598 57.9044 80.0591 57.7132C78.7583 57.519 77.6871 57.3063 76.8455 57.075C78.9114 54.6083 80.4983 51.8719 81.6062 48.8656C82.7172 45.8594 83.2727 42.7375 83.2727 39.5C83.2727 36.2625 82.7172 33.1406 81.6062 30.1344C80.4983 27.1281 78.9114 24.3917 76.8455 21.925C77.9167 21.5396 78.9879 21.2883 80.0591 21.1711C81.1303 21.057 82.2015 21 83.2727 21C88.3227 21 92.6458 22.8115 96.242 26.4344C99.8383 30.0573 101.636 34.4125 101.636 39.5ZM28.1818 85.75H83.2727V82.05C83.2727 81.2021 83.0631 80.4313 82.6438 79.7375C82.2214 79.0438 81.6659 78.5042 80.9773 78.1188C76.8455 76.0375 72.6754 74.4758 68.467 73.4336C64.2587 72.3945 60.0121 71.875 55.7273 71.875C51.4424 71.875 47.1958 72.3945 42.9875 73.4336C38.7792 74.4758 34.6091 76.0375 30.4773 78.1188C29.7886 78.5042 29.2347 79.0438 28.8154 79.7375C28.393 80.4313 28.1818 81.2021 28.1818 82.05V85.75ZM55.7273 48.75C58.2523 48.75 60.4146 47.8435 62.2142 46.0305C64.0108 44.2206 64.9091 42.0438 64.9091 39.5C64.9091 36.9562 64.0108 34.7794 62.2142 32.9695C60.4146 31.1565 58.2523 30.25 55.7273 30.25C53.2023 30.25 51.0415 31.1565 49.2449 32.9695C47.4453 34.7794 46.5455 36.9562 46.5455 39.5C46.5455 42.0438 47.4453 44.2206 49.2449 46.0305C51.0415 47.8435 53.2023 48.75 55.7273 48.75Z" fill="#EE9561"/>
</svg>
