<svg width="116" height="124" viewBox="0 0 116 124" fill="none" xmlns="http://www.w3.org/2000/svg">
<rect width="116" height="124" fill="#1E1E1E"/>
<g filter="url(#filter0_d_0_1)">
<path d="M94.8936 58C94.8936 69.8852 91.5468 80.6507 84.8532 90.2967C78.1595 99.9426 69.3361 107.177 58.3829 112C47.4298 107.177 38.6064 99.9426 31.9127 90.2967C25.2191 80.6507 21.8723 69.8852 21.8723 58C21.8723 46.1148 25.2191 35.3493 31.9127 25.7034C38.6064 16.0574 47.4298 8.82297 58.3829 4C69.3361 8.82297 78.1595 16.0574 84.8532 25.7034C91.5468 35.3493 94.8936 46.1148 94.8936 58Z" fill="url(#paint0_radial_0_1)" stroke="#EE9561" stroke-width="6"/>
<g filter="url(#filter1_i_0_1)">
<path d="M58 77.9295C63.5981 77.9295 68.3565 75.9581 72.2751 72.0152C76.1938 68.0723 78.1531 63.3581 78.1531 57.8723C78.1531 52.3009 76.1722 47.5652 72.2105 43.6652C68.2488 39.7652 63.512 37.8152 58 37.8152C52.4019 37.8152 47.6435 39.7866 43.7249 43.7295C39.8062 47.6723 37.8469 52.3866 37.8469 57.8723C37.8469 63.4438 39.8277 68.1795 43.7895 72.0795C47.7512 75.9795 52.488 77.9295 58 77.9295ZM58 72.1438C53.9521 72.1438 50.5502 70.7509 47.7943 67.9652C45.0383 65.1795 43.6603 61.8152 43.6603 57.8723C43.6603 53.8438 45.0598 50.4581 47.8589 47.7152C50.6579 44.9723 54.0383 43.6009 58 43.6009C62.0478 43.6009 65.4498 44.9938 68.2057 47.7795C70.9617 50.5652 72.3397 53.9295 72.3397 57.8723C72.3397 61.9009 70.9402 65.2866 68.1411 68.0295C65.3421 70.7723 61.9617 72.1438 58 72.1438ZM58 93.8723C46.1148 93.8723 35.3493 90.5723 25.7033 83.9723C16.0574 77.3723 8.82297 68.6723 4 57.8723C8.82297 47.0723 16.0574 38.3723 25.7033 31.7723C35.3493 25.1723 46.1148 21.8723 58 21.8723C69.8852 21.8723 80.6507 25.1723 90.2966 31.7723C99.9426 38.3723 107.177 47.0723 112 57.8723C107.177 68.6723 99.9426 77.3723 90.2966 83.9723C80.6507 90.5723 69.8852 93.8723 58 93.8723ZM58 91.3973C68.2488 91.3973 77.6579 88.6545 86.2273 83.1688C94.7966 77.683 104.147 67.0438 108.625 57.8723C104.147 48.7009 94.7966 38.1581 86.2273 32.6723C77.6579 27.1866 68.2488 24.4438 58 24.4438C47.7512 24.4438 38.3421 27.1866 29.7727 32.6723C21.2033 38.1581 11.7146 48.7009 7.15 57.8723C11.7146 67.0438 21.2033 77.683 29.7727 83.1688C38.3421 88.6545 47.7512 91.3973 58 91.3973Z" fill="url(#paint1_radial_0_1)"/>
</g>
<path d="M58 70.1277C56.2484 70.1277 54.6021 69.8085 53.0611 69.1702C51.5201 68.5319 50.1842 67.6702 49.0534 66.5851C47.9226 65.5 47.0246 64.2181 46.3595 62.7394C45.6943 61.2606 45.3617 59.6809 45.3617 58C45.3617 56.3192 45.6943 54.7394 46.3595 53.2606C47.0246 51.7819 47.9226 50.5 49.0534 49.4149C50.1842 48.3298 51.5201 47.4681 53.0611 46.8298C54.6021 46.1915 56.2484 45.8723 58 45.8723H58.7649V56.2128C59.1419 56.383 59.4412 56.6277 59.6629 56.9468C59.8847 57.266 59.9955 57.617 59.9955 58C59.9955 58.5319 59.8015 58.984 59.4135 59.3564C59.0255 59.7287 58.5543 59.9149 58 59.9149C57.4457 59.9149 56.9745 59.7287 56.5865 59.3564C56.1985 58.984 56.0045 58.5319 56.0045 58C56.0045 57.617 56.1153 57.266 56.3371 56.9468C56.5588 56.6277 56.8581 56.383 57.235 56.2128V52.4787C55.7938 52.6489 54.591 53.2553 53.6265 54.2979C52.662 55.3404 52.1797 56.5745 52.1797 58C52.1797 59.5532 52.7451 60.8723 53.8759 61.9575C55.0067 63.0426 56.3814 63.5851 58 63.5851C59.6186 63.5851 60.9933 63.0426 62.1241 61.9575C63.2549 60.8723 63.8203 59.5532 63.8203 58C63.8203 57.1489 63.6429 56.3723 63.2881 55.6702C62.9334 54.9681 62.4567 54.3617 61.858 53.8511L62.9555 52.7979C63.6651 53.4575 64.236 54.2287 64.6684 55.1117C65.1007 55.9947 65.3169 56.9575 65.3169 58C65.3169 59.9575 64.6074 61.617 63.1883 62.9787C61.7693 64.3404 60.0399 65.0213 58 65.0213C55.9601 65.0213 54.2307 64.3404 52.8116 62.9787C51.3926 61.617 50.6831 59.9575 50.6831 58C50.6831 56.1702 51.3095 54.5904 52.5622 53.2606C53.8149 51.9309 55.3726 51.1809 57.235 51.0106V47.3404C54.3305 47.5106 51.8749 48.617 49.8682 50.6596C47.8616 52.7021 46.8583 55.1489 46.8583 58C46.8583 60.9787 47.9392 63.5053 50.1011 65.5798C52.2629 67.6543 54.8958 68.6915 58 68.6915C61.1041 68.6915 63.7371 67.6543 65.8989 65.5798C68.0607 63.5053 69.1417 60.9787 69.1417 58C69.1417 56.4468 68.8257 55.0106 68.1938 53.6915C67.5619 52.3723 66.7027 51.2234 65.6162 50.2447L66.7138 49.1915C67.9111 50.3192 68.8645 51.633 69.574 53.133C70.2835 54.633 70.6383 56.2553 70.6383 58C70.6383 59.6809 70.3057 61.2606 69.6405 62.7394C68.9754 64.2181 68.0774 65.5 66.9466 66.5851C65.8158 67.6702 64.4799 68.5319 62.9389 69.1702C61.3979 69.8085 59.7516 70.1277 58 70.1277Z" fill="white"/>
</g>
<defs>
<filter id="filter0_d_0_1" x="0" y="0.722046" width="116" height="122.556" filterUnits="userSpaceOnUse" color-interpolation-filters="sRGB">
<feFlood flood-opacity="0" result="BackgroundImageFix"/>
<feColorMatrix in="SourceAlpha" type="matrix" values="0 0 0 0 0 0 0 0 0 0 0 0 0 0 0 0 0 0 127 0" result="hardAlpha"/>
<feOffset dy="4"/>
<feGaussianBlur stdDeviation="2"/>
<feComposite in2="hardAlpha" operator="out"/>
<feColorMatrix type="matrix" values="0 0 0 0 0 0 0 0 0 0 0 0 0 0 0 0 0 0 0.5 0"/>
<feBlend mode="normal" in2="BackgroundImageFix" result="effect1_dropShadow_0_1"/>
<feBlend mode="normal" in="SourceGraphic" in2="effect1_dropShadow_0_1" result="shape"/>
</filter>
<filter id="filter1_i_0_1" x="4" y="21.8723" width="108" height="76" filterUnits="userSpaceOnUse" color-interpolation-filters="sRGB">
<feFlood flood-opacity="0" result="BackgroundImageFix"/>
<feBlend mode="normal" in="SourceGraphic" in2="BackgroundImageFix" result="shape"/>
<feColorMatrix in="SourceAlpha" type="matrix" values="0 0 0 0 0 0 0 0 0 0 0 0 0 0 0 0 0 0 127 0" result="hardAlpha"/>
<feOffset dy="4"/>
<feGaussianBlur stdDeviation="2.5"/>
<feComposite in2="hardAlpha" operator="arithmetic" k2="-1" k3="1"/>
<feColorMatrix type="matrix" values="0 0 0 0 0 0 0 0 0 0 0 0 0 0 0 0 0 0 0.75 0"/>
<feBlend mode="normal" in2="shape" result="effect1_innerShadow_0_1"/>
</filter>
<radialGradient id="paint0_radial_0_1" cx="0" cy="0" r="1" gradientUnits="userSpaceOnUse" gradientTransform="translate(58.383 56.875) rotate(-90) scale(52.875 78.4637)">
<stop stop-color="#241E19"/>
<stop offset="1" stop-color="#1F1F20"/>
</radialGradient>
<radialGradient id="paint1_radial_0_1" cx="0" cy="0" r="1" gradientUnits="userSpaceOnUse" gradientTransform="translate(58 57.8723) rotate(90) scale(36 54)">
<stop stop-color="white"/>
<stop offset="1" stop-color="#EE9561"/>
</radialGradient>
</defs>
</svg>
